<?xml version="1.0" encoding="utf-8"?>
<!-- Generator: Adobe Illustrator 17.1.0, SVG Export Plug-In . SVG Version: 6.00 Build 0)  -->
<!DOCTYPE svg PUBLIC "-//W3C//DTD SVG 1.1//EN" "http://www.w3.org/Graphics/SVG/1.1/DTD/svg11.dtd" [
	<!ENTITY ns_extend "http://ns.adobe.com/Extensibility/1.0/">
	<!ENTITY ns_ai "http://ns.adobe.com/AdobeIllustrator/10.0/">
	<!ENTITY ns_graphs "http://ns.adobe.com/Graphs/1.0/">
	<!ENTITY ns_vars "http://ns.adobe.com/Variables/1.0/">
	<!ENTITY ns_imrep "http://ns.adobe.com/ImageReplacement/1.0/">
	<!ENTITY ns_sfw "http://ns.adobe.com/SaveForWeb/1.0/">
	<!ENTITY ns_custom "http://ns.adobe.com/GenericCustomNamespace/1.0/">
	<!ENTITY ns_adobe_xpath "http://ns.adobe.com/XPath/1.0/">
]>
<svg version="1.1" id="Слой_1" xmlns:x="&ns_extend;" xmlns:i="&ns_ai;" xmlns:graph="&ns_graphs;"
	 xmlns="http://www.w3.org/2000/svg" xmlns:xlink="http://www.w3.org/1999/xlink" x="0px" y="0px" viewBox="0 0 385 550"
	 enable-background="new 0 0 385 550" xml:space="preserve">
<metadata>
	<sfw  xmlns="&ns_sfw;">
		<slices></slices>
		<sliceSourceBounds  height="515.4" width="376.7" x="5.1" y="16" bottomLeftOrigin="true"></sliceSourceBounds>
	</sfw>
</metadata>
<linearGradient id="SVGID_1_" gradientUnits="userSpaceOnUse" x1="32.1598" y1="561.0353" x2="32.1598" y2="475.1572" gradientTransform="matrix(6.0156 0 0 -6.0156 0 3391.0938)">
	<stop  offset="0" style="stop-color:#1A6DFF"/>
	<stop  offset="1" style="stop-color:#C822FF"/>
</linearGradient>
<path fill="url(#SVGID_1_)" d="M362,58.2h-19.8c0-10.9-8.9-19.8-19.8-19.8H243c0-10.9-8.9-19.8-19.8-19.8h-59.5
	c-10.9,0-19.8,8.9-19.8,19.8H64.6c-10.9,0-19.8,8.9-19.8,19.8H25C14,58.2,5.1,67.1,5.1,78.1v436.1C5.1,525.1,14,534,25,534h337
	c10.9,0,19.8-8.9,19.8-19.8V78.1C381.8,67.1,372.9,58.2,362,58.2z M163.7,38.4h59.5V88c0,16.4-13.3,29.7-29.7,29.7
	s-29.7-13.3-29.7-29.7V38.4z M25,78.1h118.9V88c0,27.3,22.2,49.6,49.6,49.6S243,115.3,243,88v-9.9H362v317.2h-99.1
	c-10.9,0-19.8,8.9-19.8,19.8v99.1H25V78.1z M262.8,514.2v-99.1H362v99.1H262.8z"/>
<linearGradient id="SVGID_2_" gradientUnits="userSpaceOnUse" x1="50.2853" y1="561.0353" x2="50.2853" y2="475.1572" gradientTransform="matrix(6.0156 0 0 -6.0156 0 3391.0938)">
	<stop  offset="0" style="stop-color:#1A6DFF"/>
	<stop  offset="1" style="stop-color:#C822FF"/>
</linearGradient>
<path fill="url(#SVGID_2_)" d="M282.7,454.7v19.8h19.8v-19.8h19.8v-19.8h-19.8C291.6,434.9,282.7,443.8,282.7,454.7z"/>
<g>
	<linearGradient id="SVGID_3_" gradientUnits="userSpaceOnUse" x1="194.0746" y1="156.0155" x2="194.0746" y2="465.4203">
		<stop  offset="0" style="stop-color:#6DC7FF"/>
		<stop  offset="1" style="stop-color:#E6ABFF"/>
	</linearGradient>
	<path fill="url(#SVGID_3_)" d="M91.9,241.4c0-12.9,4.2-26.1,12.5-39.3c8.3-13.3,20.4-24.3,36.4-33c15.9-8.7,34.5-13.1,55.8-13.1
		c19.8,0,37.2,3.6,52.3,10.9c15.1,7.3,26.8,17.2,35,29.7c8.2,12.5,12.4,26.2,12.4,40.9c0,11.6-2.3,21.7-7.1,30.5
		c-4.7,8.7-10.3,16.2-16.8,22.6c-6.5,6.3-18.1,17-34.8,32c-4.6,4.2-8.3,7.9-11.1,11.1c-2.8,3.2-4.9,6.1-6.2,8.8
		c-1.4,2.7-2.4,5.3-3.2,8c-0.8,2.7-1.9,7.3-3.4,14c-2.6,14.2-10.7,21.3-24.3,21.3c-7.1,0-13-2.3-17.9-6.9
		c-4.8-4.6-7.3-11.5-7.3-20.6c0-11.4,1.8-21.4,5.3-29.7c3.5-8.4,8.2-15.7,14.1-22.1c5.9-6.3,13.8-13.9,23.7-22.6
		c8.7-7.6,15-13.4,18.9-17.3c3.9-3.9,7.2-8.2,9.8-13c2.7-4.8,4-9.9,4-15.5c0-10.9-4.1-20.1-12.2-27.6c-8.1-7.5-18.6-11.2-31.4-11.2
		c-15,0-26,3.8-33.1,11.3c-7.1,7.6-13.1,18.7-18,33.4c-4.6,15.4-13.4,23.1-26.4,23.1c-7.6,0-14.1-2.7-19.3-8.1
		C94.5,253.5,91.9,247.7,91.9,241.4z M191.6,465.4c-8.3,0-15.6-2.7-21.8-8.1c-6.2-5.4-9.3-12.9-9.3-22.6c0-8.6,3-15.8,9-21.7
		c6-5.9,13.4-8.8,22.1-8.8c8.6,0,15.8,2.9,21.7,8.8c5.9,5.9,8.8,13.1,8.8,21.7c0,9.5-3.1,17-9.2,22.5
		C206.7,462.7,199.7,465.4,191.6,465.4z"/>
</g>
</svg>
