<?xml version="1.0" encoding="utf-8"?>
<!-- Generator: Adobe Illustrator 17.1.0, SVG Export Plug-In . SVG Version: 6.00 Build 0)  -->
<!DOCTYPE svg PUBLIC "-//W3C//DTD SVG 1.1//EN" "http://www.w3.org/Graphics/SVG/1.1/DTD/svg11.dtd" [
	<!ENTITY ns_extend "http://ns.adobe.com/Extensibility/1.0/">
	<!ENTITY ns_ai "http://ns.adobe.com/AdobeIllustrator/10.0/">
	<!ENTITY ns_graphs "http://ns.adobe.com/Graphs/1.0/">
	<!ENTITY ns_vars "http://ns.adobe.com/Variables/1.0/">
	<!ENTITY ns_imrep "http://ns.adobe.com/ImageReplacement/1.0/">
	<!ENTITY ns_sfw "http://ns.adobe.com/SaveForWeb/1.0/">
	<!ENTITY ns_custom "http://ns.adobe.com/GenericCustomNamespace/1.0/">
	<!ENTITY ns_adobe_xpath "http://ns.adobe.com/XPath/1.0/">
]>
<svg version="1.1" id="Layer_1" xmlns:x="&ns_extend;" xmlns:i="&ns_ai;" xmlns:graph="&ns_graphs;"
	 xmlns="http://www.w3.org/2000/svg" xmlns:xlink="http://www.w3.org/1999/xlink" x="0px" y="0px" viewBox="0 0 528 528"
	 enable-background="new 0 0 528 528" xml:space="preserve">
<metadata>
	<sfw  xmlns="&ns_sfw;">
		<slices></slices>
		<sliceSourceBounds  height="396" width="396" x="-5" y="78" bottomLeftOrigin="true"></sliceSourceBounds>
	</sfw>
</metadata>
<linearGradient id="SVGID_1_" gradientUnits="userSpaceOnUse" x1="328.2895" y1="222.618" x2="328.2895" y2="343.145">
	<stop  offset="0" style="stop-color:#6DC7FF"/>
	<stop  offset="1" style="stop-color:#E6ABFF"/>
</linearGradient>
<path fill="url(#SVGID_1_)" d="M329.4,320.9c-5.3,0-9.1-1.3-11.4-4c-2.3-2.7-3.6-6.6-3.7-11.9h-28.9c0,6.9,1.8,13.3,5.5,19.2
	c3.7,5.9,8.8,10.6,15.3,13.9c6.5,3.3,14,5,22.6,5c12.7,0,22.9-3.1,30.7-9.4c7.8-6.3,11.7-14.6,11.7-25c0-8.9-2.6-16.2-7.7-21.9
	c-5.1-5.6-13.9-10.7-26.3-15.3c-8.5-3.7-13.9-6.5-16.2-8.4c-2.3-2-3.4-4.2-3.4-6.8c0-3.6,1-6.4,3.1-8.4s4.7-3,8-3
	c7.9,0,11.8,4.7,11.8,14.2h30.4c0-11.1-3.8-20-11.5-26.5c-7.7-6.6-17.9-9.9-30.6-9.9c-12.1,0-21.8,3.3-29.2,9.9
	c-7.3,6.6-11,15-11,25.2c0,8.1,2.3,14.9,7,20.3s13.3,10.7,25.8,15.8c8.5,3.7,14,6.7,16.5,8.9c2.5,2.2,3.7,4.6,3.7,7.1
	C341.7,317.2,337.6,320.9,329.4,320.9z"/>
<linearGradient id="SVGID_2_" gradientUnits="userSpaceOnUse" x1="218.6195" y1="184.591" x2="218.6195" y2="341">
	<stop  offset="0" style="stop-color:#6DC7FF"/>
	<stop  offset="1" style="stop-color:#E6ABFF"/>
</linearGradient>
<path fill="url(#SVGID_2_)" d="M198.2,286h21.1c16.1,0,28.7-4.4,37.8-13.3c9.1-8.9,13.7-21,13.7-36.3s-4.6-27.8-13.8-37.4
	c-9.2-9.6-21.5-14.4-37-14.4h-53.3V341h31.6V286z M198.2,210.9h22c5.7,0.1,10.2,2.4,13.5,7c3.4,4.6,5,10.8,5,18.6
	c0,7.5-1.6,13.3-4.9,17.2c-3.3,3.9-8,5.9-14,5.9h-21.7V210.9z"/>
<linearGradient id="SVGID_3_" gradientUnits="userSpaceOnUse" x1="264" y1="66" x2="264" y2="462">
	<stop  offset="0" style="stop-color:#1A6DFF"/>
	<stop  offset="1" style="stop-color:#C822FF"/>
</linearGradient>
<path fill="url(#SVGID_3_)" d="M418,66H110c-24.3,0-44,19.7-44,44v308c0,24.3,19.7,44,44,44h308c24.3,0,44-19.7,44-44V110
	C462,85.7,442.3,66,418,66z M429,429H99V99h330V429z"/>
</svg>
