<?xml version="1.0" encoding="utf-8"?>
<!-- Generator: Adobe Illustrator 17.1.0, SVG Export Plug-In . SVG Version: 6.00 Build 0)  -->
<!DOCTYPE svg PUBLIC "-//W3C//DTD SVG 1.1//EN" "http://www.w3.org/Graphics/SVG/1.1/DTD/svg11.dtd" [
	<!ENTITY ns_extend "http://ns.adobe.com/Extensibility/1.0/">
	<!ENTITY ns_ai "http://ns.adobe.com/AdobeIllustrator/10.0/">
	<!ENTITY ns_graphs "http://ns.adobe.com/Graphs/1.0/">
	<!ENTITY ns_vars "http://ns.adobe.com/Variables/1.0/">
	<!ENTITY ns_imrep "http://ns.adobe.com/ImageReplacement/1.0/">
	<!ENTITY ns_sfw "http://ns.adobe.com/SaveForWeb/1.0/">
	<!ENTITY ns_custom "http://ns.adobe.com/GenericCustomNamespace/1.0/">
	<!ENTITY ns_adobe_xpath "http://ns.adobe.com/XPath/1.0/">
]>
<svg version="1.1" id="Слой_1" xmlns:x="&ns_extend;" xmlns:i="&ns_ai;" xmlns:graph="&ns_graphs;"
	 xmlns="http://www.w3.org/2000/svg" xmlns:xlink="http://www.w3.org/1999/xlink" x="0px" y="0px" viewBox="0 0 385 550"
	 enable-background="new 0 0 385 550" xml:space="preserve">
<metadata>
	<sfw  xmlns="&ns_sfw;">
		<slices></slices>
		<sliceSourceBounds  height="503" width="365.9" x="9.9" y="24" bottomLeftOrigin="true"></sliceSourceBounds>
	</sfw>
</metadata>
<g>
	<g>
		<g>
			<linearGradient id="SVGID_1_" gradientUnits="userSpaceOnUse" x1="172.5493" y1="25.9388" x2="172.5493" y2="524.0876">
				<stop  offset="0" style="stop-color:#1A6DFF"/>
				<stop  offset="1" style="stop-color:#C822FF"/>
			</linearGradient>
			<path fill="url(#SVGID_1_)" d="M186.6,233.4c-3.8-1.7-8.2-0.7-11.1,2.3l-20.3,21c-4,4.1-4,10.7,0,14.8c4,4.1,10.4,4.1,14.4,0
				l3-3.1v37.6c0,5.8,4.6,10.5,10.2,10.5s10.2-4.7,10.2-10.5v-62.9C192.9,238.8,190.4,235,186.6,233.4z"/>
		</g>
	</g>
	<g>
		<g>
			<linearGradient id="SVGID_2_" gradientUnits="userSpaceOnUse" x1="233.535" y1="25.9388" x2="233.535" y2="524.0876">
				<stop  offset="0" style="stop-color:#1A6DFF"/>
				<stop  offset="1" style="stop-color:#C822FF"/>
			</linearGradient>
			<path fill="url(#SVGID_2_)" d="M247.6,233.4c-3.8-1.7-8.2-0.7-11.1,2.3l-20.3,21c-4,4.1-4,10.7,0,14.8c4,4.1,10.4,4.1,14.4,0
				l3-3.1v37.6c0,5.8,4.6,10.5,10.2,10.5s10.2-4.7,10.2-10.5v-62.9C253.9,238.8,251.4,235,247.6,233.4z"/>
		</g>
	</g>
	<g>
		<g>
			<linearGradient id="SVGID_3_" gradientUnits="userSpaceOnUse" x1="294.5213" y1="25.9388" x2="294.5213" y2="524.0876">
				<stop  offset="0" style="stop-color:#1A6DFF"/>
				<stop  offset="1" style="stop-color:#C822FF"/>
			</linearGradient>
			<path fill="url(#SVGID_3_)" d="M308.6,233.4c-3.8-1.7-8.2-0.7-11.1,2.3l-20.3,21c-4,4.1-4,10.7,0,14.8c4,4.1,10.4,4.1,14.4,0
				l3-3.1v37.6c0,5.8,4.6,10.5,10.2,10.5s10.2-4.7,10.2-10.5v-62.9C314.9,238.8,312.4,235,308.6,233.4z"/>
		</g>
	</g>
	<g>
		<g>
			<linearGradient id="SVGID_4_" gradientUnits="userSpaceOnUse" x1="101.3813" y1="25.9388" x2="101.3813" y2="524.0876">
				<stop  offset="0" style="stop-color:#1A6DFF"/>
				<stop  offset="1" style="stop-color:#C822FF"/>
			</linearGradient>
			<path fill="url(#SVGID_4_)" d="M121.7,232.6H81.1c-5.6,0-10.2,4.7-10.2,10.5v62.9c0,5.8,4.6,10.5,10.2,10.5h40.7
				c5.6,0,10.2-4.7,10.2-10.5v-62.9C131.9,237.3,127.3,232.6,121.7,232.6z M111.5,295.5H91.2v-41.9h20.3L111.5,295.5L111.5,295.5z"
				/>
		</g>
	</g>
	<g>
		<g>
			<linearGradient id="SVGID_5_" gradientUnits="userSpaceOnUse" x1="233.535" y1="25.9388" x2="233.535" y2="524.0876">
				<stop  offset="0" style="stop-color:#1A6DFF"/>
				<stop  offset="1" style="stop-color:#C822FF"/>
			</linearGradient>
			<path fill="url(#SVGID_5_)" d="M247.6,359.1c-3.8-1.6-8.2-0.7-11.1,2.3l-20.3,21c-4,4.1-4,10.7,0,14.8s10.4,4.1,14.4,0l3-3.1
				v37.6c0,5.8,4.6,10.5,10.2,10.5s10.2-4.7,10.2-10.5v-62.9C253.9,364.6,251.4,360.8,247.6,359.1z"/>
		</g>
	</g>
	<g>
		<g>
			<linearGradient id="SVGID_6_" gradientUnits="userSpaceOnUse" x1="294.5213" y1="25.9388" x2="294.5213" y2="524.0876">
				<stop  offset="0" style="stop-color:#1A6DFF"/>
				<stop  offset="1" style="stop-color:#C822FF"/>
			</linearGradient>
			<path fill="url(#SVGID_6_)" d="M308.6,359.1c-3.8-1.6-8.2-0.7-11.1,2.3l-20.3,21c-4,4.1-4,10.7,0,14.8s10.4,4.1,14.4,0l3-3.1
				v37.6c0,5.8,4.6,10.5,10.2,10.5s10.2-4.7,10.2-10.5v-62.9C314.9,364.6,312.4,360.8,308.6,359.1z"/>
		</g>
	</g>
	<g>
		<g>
			<linearGradient id="SVGID_7_" gradientUnits="userSpaceOnUse" x1="91.2357" y1="25.9388" x2="91.2357" y2="524.0876">
				<stop  offset="0" style="stop-color:#1A6DFF"/>
				<stop  offset="1" style="stop-color:#C822FF"/>
			</linearGradient>
			<path fill="url(#SVGID_7_)" d="M105.3,359.1c-3.8-1.6-8.2-0.7-11.1,2.3l-20.3,21c-4,4.1-4,10.7,0,14.8s10.4,4.1,14.4,0l3-3.1
				v37.6c0,5.8,4.6,10.5,10.2,10.5c5.6,0,10.2-4.7,10.2-10.5v-62.9C111.6,364.6,109.1,360.8,105.3,359.1z"/>
		</g>
	</g>
	<g>
		<g>
			<linearGradient id="SVGID_8_" gradientUnits="userSpaceOnUse" x1="162.3671" y1="25.9388" x2="162.3671" y2="524.0876">
				<stop  offset="0" style="stop-color:#1A6DFF"/>
				<stop  offset="1" style="stop-color:#C822FF"/>
			</linearGradient>
			<path fill="url(#SVGID_8_)" d="M182.7,358.3H142c-5.6,0-10.2,4.7-10.2,10.5v62.9c0,5.8,4.6,10.5,10.2,10.5h40.7
				c5.6,0,10.2-4.7,10.2-10.5v-62.9C192.9,363,188.3,358.3,182.7,358.3z M172.5,421.2h-20.3v-41.9h20.3L172.5,421.2L172.5,421.2z"/>
		</g>
	</g>
	<g>
		<g>
			<linearGradient id="SVGID_9_" gradientUnits="userSpaceOnUse" x1="192.8604" y1="25.9388" x2="192.8604" y2="524.0876">
				<stop  offset="0" style="stop-color:#1A6DFF"/>
				<stop  offset="1" style="stop-color:#C822FF"/>
			</linearGradient>
			<path fill="url(#SVGID_9_)" d="M365.7,23H142c-1.4,0-2.7,0.3-3.9,0.8c-0.4,0.2-0.7,0.5-1,0.7c-0.8,0.5-1.6,0.9-2.2,1.5
				l-122,125.8c-0.5,0.5-0.7,1.1-1.1,1.7c-0.4,0.6-0.8,1-1.1,1.7c-0.5,1.3-0.8,2.6-0.8,4v356.3c0,5.8,4.6,10.5,10.2,10.5h345.6
				c5.6,0,10.2-4.7,10.2-10.5V33.5C375.8,27.7,371.3,23,365.7,23z M131.9,58.8v90H44.6L131.9,58.8z M355.5,505.1H30.2V169.7H142
				c5.6,0,10.2-4.7,10.2-10.5V44h203.3L355.5,505.1L355.5,505.1z"/>
		</g>
	</g>
</g>
</svg>
