<?xml version="1.0" encoding="utf-8"?>
<!-- Generator: Adobe Illustrator 17.1.0, SVG Export Plug-In . SVG Version: 6.00 Build 0)  -->
<!DOCTYPE svg PUBLIC "-//W3C//DTD SVG 1.1//EN" "http://www.w3.org/Graphics/SVG/1.1/DTD/svg11.dtd" [
	<!ENTITY ns_extend "http://ns.adobe.com/Extensibility/1.0/">
	<!ENTITY ns_ai "http://ns.adobe.com/AdobeIllustrator/10.0/">
	<!ENTITY ns_graphs "http://ns.adobe.com/Graphs/1.0/">
	<!ENTITY ns_vars "http://ns.adobe.com/Variables/1.0/">
	<!ENTITY ns_imrep "http://ns.adobe.com/ImageReplacement/1.0/">
	<!ENTITY ns_sfw "http://ns.adobe.com/SaveForWeb/1.0/">
	<!ENTITY ns_custom "http://ns.adobe.com/GenericCustomNamespace/1.0/">
	<!ENTITY ns_adobe_xpath "http://ns.adobe.com/XPath/1.0/">
]>
<svg version="1.1" id="Layer_1" xmlns:x="&ns_extend;" xmlns:i="&ns_ai;" xmlns:graph="&ns_graphs;"
	 xmlns="http://www.w3.org/2000/svg" xmlns:xlink="http://www.w3.org/1999/xlink" x="0px" y="0px" viewBox="0 0 528 528"
	 enable-background="new 0 0 528 528" xml:space="preserve">
<metadata>
	<sfw  xmlns="&ns_sfw;">
		<slices></slices>
		<sliceSourceBounds  height="396" width="396" x="-5" y="78" bottomLeftOrigin="true"></sliceSourceBounds>
	</sfw>
</metadata>
<linearGradient id="SVGID_1_" gradientUnits="userSpaceOnUse" x1="325.7265" y1="224.763" x2="325.7265" y2="341">
	<stop  offset="0" style="stop-color:#6DC7FF"/>
	<stop  offset="1" style="stop-color:#E6ABFF"/>
</linearGradient>
<polygon fill="url(#SVGID_1_)" points="309.4,341 325.8,273.8 342.2,341 367.5,341 391.5,224.8 362.4,224.8 352,290 336.5,224.8 
	314.9,224.8 299.5,290.1 289.1,224.8 259.9,224.8 284,341 "/>
<linearGradient id="SVGID_2_" gradientUnits="userSpaceOnUse" x1="195.3765" y1="184.591" x2="195.3765" y2="341">
	<stop  offset="0" style="stop-color:#6DC7FF"/>
	<stop  offset="1" style="stop-color:#E6ABFF"/>
</linearGradient>
<path fill="url(#SVGID_2_)" d="M229.9,323.4c10.8-11.7,16.3-27.8,16.3-48.4v-25.4c-0.2-20.2-5.7-36.1-16.6-47.7
	c-10.9-11.6-25.4-17.4-43.7-17.4h-41.4V341h40.5C204.1,341,219.1,335.1,229.9,323.4z M176.2,210.9h11.5c9.8,0.3,16.7,3.3,20.8,9.1
	c4.1,5.8,6.1,16,6.1,30.6v27.2c-0.2,13.6-2.5,23.2-6.8,28.7s-11.7,8.3-22.2,8.3h-9.4V210.9z"/>
<linearGradient id="SVGID_3_" gradientUnits="userSpaceOnUse" x1="264" y1="66" x2="264" y2="462">
	<stop  offset="0" style="stop-color:#1A6DFF"/>
	<stop  offset="1" style="stop-color:#C822FF"/>
</linearGradient>
<path fill="url(#SVGID_3_)" d="M418,66H110c-24.3,0-44,19.7-44,44v308c0,24.3,19.7,44,44,44h308c24.3,0,44-19.7,44-44V110
	C462,85.7,442.3,66,418,66z M429,429H99V99h330V429z"/>
</svg>
