<?xml version="1.0" encoding="iso-8859-1"?>
<!-- Generator: Adobe Illustrator 20.1.0, SVG Export Plug-In . SVG Version: 6.00 Build 0)  -->
<svg xmlns="http://www.w3.org/2000/svg" xmlns:xlink="http://www.w3.org/1999/xlink" version="1.1" id="&#1057;&#1083;&#1086;&#1081;_1" x="0px" y="0px" viewBox="0 0 64 64" style="enable-background:new 0 0 64 64;" xml:space="preserve">
<linearGradient id="SVGID_1__43683" gradientUnits="userSpaceOnUse" x1="32" y1="5.668" x2="32" y2="58.703" spreadMethod="reflect">
	<stop offset="0" style="stop-color:#1A6DFF"/>
	<stop offset="1" style="stop-color:#C822FF"/>
</linearGradient>
<path style="fill:url(#SVGID_1__43683);" d="M49.999,11H35V8.976c0-0.937-0.432-1.801-1.186-2.367c-0.764-0.575-1.731-0.755-2.65-0.488  l-18.56,5.342C10.482,12.072,9,14.025,9,16.212v31.577c0,2.186,1.482,4.139,3.604,4.75l18.56,5.342  c0.279,0.081,0.564,0.12,0.845,0.12c0.645,0,1.275-0.208,1.806-0.608C34.568,56.825,35,55.962,35,55.024V53h14.999  C52.756,53,55,50.756,55,47.999V16.001C55,13.244,52.756,11,49.999,11z M33,55.024c0,0.304-0.142,0.584-0.389,0.769  c-0.258,0.193-0.587,0.253-0.895,0.164l-18.56-5.342C11.887,50.251,11,49.088,11,47.788V16.212c0-1.3,0.887-2.463,2.157-2.828  l18.56-5.342c0.095-0.027,0.192-0.041,0.287-0.041c0.217,0,0.429,0.07,0.607,0.205C32.858,8.392,33,8.672,33,8.976v2.025v41.998  V55.024z M53,47.999C53,49.653,51.653,51,49.999,51H35v-6h4v-2h-4v-4h4v-2h-4v-4h4v-2h-4v-4h4v-2h-4v-4h4v-2h-4v-6h14.999  C51.653,13,53,14.347,53,16.001V47.999z"/>
<linearGradient id="SVGID_2__43683" gradientUnits="userSpaceOnUse" x1="46" y1="5.6667" x2="46" y2="58.7044" spreadMethod="reflect">
	<stop offset="0" style="stop-color:#1A6DFF"/>
	<stop offset="1" style="stop-color:#C822FF"/>
</linearGradient>
<rect x="43" y="19" style="fill:url(#SVGID_2__43683);" width="6" height="2"/>
<linearGradient id="SVGID_3__43683" gradientUnits="userSpaceOnUse" x1="46" y1="5.6667" x2="46" y2="58.7044" spreadMethod="reflect">
	<stop offset="0" style="stop-color:#1A6DFF"/>
	<stop offset="1" style="stop-color:#C822FF"/>
</linearGradient>
<rect x="43" y="25" style="fill:url(#SVGID_3__43683);" width="6" height="2"/>
<linearGradient id="SVGID_4__43683" gradientUnits="userSpaceOnUse" x1="46" y1="5.6667" x2="46" y2="58.7044" spreadMethod="reflect">
	<stop offset="0" style="stop-color:#1A6DFF"/>
	<stop offset="1" style="stop-color:#C822FF"/>
</linearGradient>
<rect x="43" y="31" style="fill:url(#SVGID_4__43683);" width="6" height="2"/>
<linearGradient id="SVGID_5__43683" gradientUnits="userSpaceOnUse" x1="46" y1="5.6667" x2="46" y2="58.7044" spreadMethod="reflect">
	<stop offset="0" style="stop-color:#1A6DFF"/>
	<stop offset="1" style="stop-color:#C822FF"/>
</linearGradient>
<rect x="43" y="37" style="fill:url(#SVGID_5__43683);" width="6" height="2"/>
<linearGradient id="SVGID_6__43683" gradientUnits="userSpaceOnUse" x1="46" y1="5.6667" x2="46" y2="58.7044" spreadMethod="reflect">
	<stop offset="0" style="stop-color:#1A6DFF"/>
	<stop offset="1" style="stop-color:#C822FF"/>
</linearGradient>
<rect x="43" y="43" style="fill:url(#SVGID_6__43683);" width="6" height="2"/>
<linearGradient id="SVGID_7__43683" gradientUnits="userSpaceOnUse" x1="22.0005" y1="22" x2="22.0005" y2="41.3448" spreadMethod="reflect">
	<stop offset="0" style="stop-color:#6DC7FF"/>
	<stop offset="1" style="stop-color:#E6ABFF"/>
</linearGradient>
<polygon style="fill:url(#SVGID_7__43683);" points="23.947,32 29.144,41 25.24,41 22.001,35.375 18.761,41 14.857,41 20.054,32   14.857,23 18.761,23 22.001,28.625 25.24,23 29.144,23 "/>
</svg>
