<?xml version="1.0" encoding="utf-8"?>
<!-- Generator: Adobe Illustrator 17.1.0, SVG Export Plug-In . SVG Version: 6.00 Build 0)  -->
<!DOCTYPE svg PUBLIC "-//W3C//DTD SVG 1.1//EN" "http://www.w3.org/Graphics/SVG/1.1/DTD/svg11.dtd" [
	<!ENTITY ns_extend "http://ns.adobe.com/Extensibility/1.0/">
	<!ENTITY ns_ai "http://ns.adobe.com/AdobeIllustrator/10.0/">
	<!ENTITY ns_graphs "http://ns.adobe.com/Graphs/1.0/">
	<!ENTITY ns_vars "http://ns.adobe.com/Variables/1.0/">
	<!ENTITY ns_imrep "http://ns.adobe.com/ImageReplacement/1.0/">
	<!ENTITY ns_sfw "http://ns.adobe.com/SaveForWeb/1.0/">
	<!ENTITY ns_custom "http://ns.adobe.com/GenericCustomNamespace/1.0/">
	<!ENTITY ns_adobe_xpath "http://ns.adobe.com/XPath/1.0/">
]>
<svg version="1.1" id="Layer_1" xmlns:x="&ns_extend;" xmlns:i="&ns_ai;" xmlns:graph="&ns_graphs;"
	 xmlns="http://www.w3.org/2000/svg" xmlns:xlink="http://www.w3.org/1999/xlink" x="0px" y="0px" viewBox="0 0 528 528"
	 enable-background="new 0 0 528 528" xml:space="preserve">
<metadata>
	<sfw  xmlns="&ns_sfw;">
		<slices></slices>
		<sliceSourceBounds  height="396" width="396" x="-16" y="78" bottomLeftOrigin="true"></sliceSourceBounds>
	</sfw>
</metadata>
<linearGradient id="SVGID_1_" gradientUnits="userSpaceOnUse" x1="205.7605" y1="184.591" x2="205.7605" y2="341">
	<stop  offset="0" style="stop-color:#6DC7FF"/>
	<stop  offset="1" style="stop-color:#E6ABFF"/>
</linearGradient>
<rect x="190" y="184.6" fill="url(#SVGID_1_)" width="31.6" height="156.4"/>
<linearGradient id="SVGID_2_" gradientUnits="userSpaceOnUse" x1="287.87" y1="176" x2="287.87" y2="343.156">
	<stop  offset="0" style="stop-color:#6DC7FF"/>
	<stop  offset="1" style="stop-color:#E6ABFF"/>
</linearGradient>
<path fill="url(#SVGID_2_)" d="M280.2,343.2c9.8,0,17.8-4.7,24.1-14l1.4,11.8h27.6V176h-30.6v58.2c-6-7.7-13.4-11.6-22.3-11.6
	c-12.3,0-21.7,4.7-28.1,14.1c-6.4,9.4-9.7,23.6-9.7,42.6v8.8c0.2,18,3.4,31.7,9.8,41C258.7,338.5,268,343.2,280.2,343.2z M273,278.9
	c0-11.5,1.3-19.6,3.9-24.1c2.6-4.5,6.7-6.8,12.2-6.8c6,0,10.5,2.9,13.5,8.6v53.1c-3.1,5.4-7.6,8.1-13.6,8.1c-5.8,0-9.9-2.3-12.4-6.8
	c-2.4-4.5-3.7-12.6-3.7-24V278.9z"/>
<linearGradient id="SVGID_3_" gradientUnits="userSpaceOnUse" x1="253" y1="66" x2="253" y2="462">
	<stop  offset="0" style="stop-color:#1A6DFF"/>
	<stop  offset="1" style="stop-color:#C822FF"/>
</linearGradient>
<path fill="url(#SVGID_3_)" d="M407,66H99c-24.3,0-44,19.7-44,44v308c0,24.3,19.7,44,44,44h308c24.3,0,44-19.7,44-44V110
	C451,85.7,431.3,66,407,66z M418,429H88V99h330V429z"/>
</svg>
