<?xml version="1.0" encoding="iso-8859-1"?>
<!-- Generator: Adobe Illustrator 20.1.0, SVG Export Plug-In . SVG Version: 6.00 Build 0)  -->
<svg xmlns="http://www.w3.org/2000/svg" xmlns:xlink="http://www.w3.org/1999/xlink" version="1.1" id="&#1057;&#1083;&#1086;&#1081;_1" x="0px" y="0px" viewBox="0 0 64 64" style="enable-background:new 0 0 64 64;" xml:space="preserve">
<linearGradient id="SVGID_1__43640" gradientUnits="userSpaceOnUse" x1="17" y1="13.8333" x2="17" y2="20.1667" spreadMethod="reflect">
	<stop offset="0" style="stop-color:#6DC7FF"/>
	<stop offset="1" style="stop-color:#E6ABFF"/>
</linearGradient>
<path style="fill:url(#SVGID_1__43640);" d="M14,20v-5c0-0.552,0.448-1,1-1h5L14,20z"/>
<linearGradient id="SVGID_2__43640" gradientUnits="userSpaceOnUse" x1="32" y1="5.3333" x2="32" y2="58.46" spreadMethod="reflect">
	<stop offset="0" style="stop-color:#1A6DFF"/>
	<stop offset="1" style="stop-color:#C822FF"/>
</linearGradient>
<path style="fill:url(#SVGID_2__43640);" d="M54,6H10c-2.206,0-4,1.794-4,4v30c0,2.206,1.794,4,4,4h16v7c0,0.552-0.448,1-1,1h-4  c-1.654,0-3,1.346-3,3v1h-5v2h5h28h5v-2h-5v-1c0-1.654-1.346-3-3-3h-2h-2c-0.552,0-1-0.448-1-1v-7h16c2.206,0,4-1.794,4-4V10  C58,7.794,56.206,6,54,6z M41,54h2c0.552,0,1,0.448,1,1v1H20v-1c0-0.552,0.448-1,1-1h4h14H41z M36.184,52h-8.369  C27.928,51.686,28,51.352,28,51v-7h8v7C36,51.352,36.072,51.686,36.184,52z M56,40c0,1.103-0.897,2-2,2H10c-1.103,0-2-0.897-2-2V10  c0-1.103,0.897-2,2-2h44c1.103,0,2,0.897,2,2V40z"/>
<linearGradient id="SVGID_3__43640" gradientUnits="userSpaceOnUse" x1="32" y1="5.3333" x2="32" y2="58.46" spreadMethod="reflect">
	<stop offset="0" style="stop-color:#1A6DFF"/>
	<stop offset="1" style="stop-color:#C822FF"/>
</linearGradient>
<path style="fill:url(#SVGID_3__43640);" d="M52,10H12c-1.103,0-2,0.897-2,2v24c0,1.103,0.897,2,2,2h40c1.103,0,2-0.897,2-2V12  C54,10.897,53.103,10,52,10z M52,36H12V12h40V36z"/>
<linearGradient id="SVGID_4__43640" gradientUnits="userSpaceOnUse" x1="33" y1="5.3333" x2="33" y2="58.46" spreadMethod="reflect">
	<stop offset="0" style="stop-color:#1A6DFF"/>
	<stop offset="1" style="stop-color:#C822FF"/>
</linearGradient>
<path style="fill:url(#SVGID_4__43640);" d="M28,32h3h2h3c1.654,0,3-1.346,3-3v-3.184c1.162-0.414,2-1.514,2-2.816v-4c0-1.654-1.346-3-3-3  h-4c-1.302,0-2.402,0.838-2.816,2H28c-1.654,0-3,1.346-3,3v3v2v3C25,30.654,26.346,32,28,32z M37,29c0,0.552-0.448,1-1,1h-3v-4h4V29  z M34,18h4c0.552,0,1,0.448,1,1v4c0,0.552-0.448,1-1,1h-5v-5C33,18.448,33.448,18,34,18z M27,21c0-0.552,0.448-1,1-1h3v4h-4V21z   M31,26v4h-3c-0.552,0-1-0.448-1-1v-3H31z"/>
<linearGradient id="SVGID_5__43640" gradientUnits="userSpaceOnUse" x1="50" y1="5.3333" x2="50" y2="58.46" spreadMethod="reflect">
	<stop offset="0" style="stop-color:#1A6DFF"/>
	<stop offset="1" style="stop-color:#C822FF"/>
</linearGradient>
<rect x="48" y="39" style="fill:url(#SVGID_5__43640);" width="4" height="2"/>
<linearGradient id="SVGID_6__43640" gradientUnits="userSpaceOnUse" x1="44" y1="5.3333" x2="44" y2="58.46" spreadMethod="reflect">
	<stop offset="0" style="stop-color:#1A6DFF"/>
	<stop offset="1" style="stop-color:#C822FF"/>
</linearGradient>
<rect x="42" y="39" style="fill:url(#SVGID_6__43640);" width="4" height="2"/>
</svg>
