<?xml version="1.0" encoding="iso-8859-1"?>
<!-- Generator: Adobe Illustrator 20.1.0, SVG Export Plug-In . SVG Version: 6.00 Build 0)  -->
<svg xmlns="http://www.w3.org/2000/svg" xmlns:xlink="http://www.w3.org/1999/xlink" version="1.1" id="&#1057;&#1083;&#1086;&#1081;_1" x="0px" y="0px" viewBox="0 0 64 64" style="enable-background:new 0 0 64 64;" xml:space="preserve">
<linearGradient id="SVGID_1__44044" gradientUnits="userSpaceOnUse" x1="32" y1="28.625" x2="32" y2="39.5007" spreadMethod="reflect">
	<stop offset="0" style="stop-color:#6DC7FF"/>
	<stop offset="1" style="stop-color:#E6ABFF"/>
</linearGradient>
<circle style="fill:url(#SVGID_1__44044);" cx="32" cy="34" r="5"/>
<linearGradient id="SVGID_2__44044" gradientUnits="userSpaceOnUse" x1="32" y1="5.5" x2="32" y2="58.366" spreadMethod="reflect">
	<stop offset="0" style="stop-color:#1A6DFF"/>
	<stop offset="1" style="stop-color:#C822FF"/>
</linearGradient>
<path style="fill:url(#SVGID_2__44044);" d="M54.535,15.121l-7.656-7.656C45.948,6.534,44.659,6,43.343,6H13c-2.757,0-5,2.243-5,5v37v1v4  c0,2.757,2.243,5,5,5h38c2.757,0,5-2.243,5-5v-4v-4V18.657C56,17.341,55.466,16.052,54.535,15.121z M44,8.08V13c0,0.552-0.448,1-1,1  h-1.184C41.928,13.686,42,13.352,42,13V8h1.343C43.565,8,43.785,8.031,44,8.08z M20,8h2v5c0,0.352,0.072,0.686,0.184,1H21  c-0.552,0-1-0.448-1-1V8z M24,13V8h16v5c0,0.552-0.448,1-1,1H25C24.448,14,24,13.552,24,13z M51,56H13c-1.654,0-3-1.346-3-3v-0.026  C10.838,53.609,11.87,54,13,54h38c1.13,0,2.162-0.391,3-1.026V53C54,54.654,52.654,56,51,56z M54,49c0,1.654-1.346,3-3,3H13  c-1.654,0-3-1.346-3-3v-1V11c0-1.654,1.346-3,3-3h5v5c0,1.654,1.346,3,3,3h22c1.654,0,3-1.346,3-3V9.414l7.121,7.121  C53.68,17.094,54,17.867,54,18.657V45V49z"/>
<linearGradient id="SVGID_3__44044" gradientUnits="userSpaceOnUse" x1="32" y1="5.5" x2="32" y2="58.366" spreadMethod="reflect">
	<stop offset="0" style="stop-color:#1A6DFF"/>
	<stop offset="1" style="stop-color:#C822FF"/>
</linearGradient>
<path style="fill:url(#SVGID_3__44044);" d="M43,24H21c-1.654,0-3,1.346-3,3v18c0,1.654,1.346,3,3,3h22c1.654,0,3-1.346,3-3V27  C46,25.346,44.654,24,43,24z M21,26h22c0.552,0,1,0.448,1,1v15H20V27C20,26.448,20.448,26,21,26z M43,46H21c-0.552,0-1-0.448-1-1v-1  h24v1C44,45.552,43.552,46,43,46z"/>
<linearGradient id="SVGID_4__44044" gradientUnits="userSpaceOnUse" x1="32" y1="5.5" x2="32" y2="58.366" spreadMethod="reflect">
	<stop offset="0" style="stop-color:#1A6DFF"/>
	<stop offset="1" style="stop-color:#C822FF"/>
</linearGradient>
<rect x="19" y="19" style="fill:url(#SVGID_4__44044);" width="26" height="2"/>
</svg>
