<svg xmlns="http://www.w3.org/2000/svg" xmlns:xlink="http://www.w3.org/1999/xlink" version="1.1" id="Слой_1" x="0px" y="0px" viewBox="0 0 64 64" style="enable-background:new 0 0 64 64;" xml:space="preserve" width="512" height="512">
<linearGradient id="SVGID_1__44047" gradientUnits="userSpaceOnUse" x1="42" y1="36.75" x2="42" y2="47.5" spreadMethod="reflect">
	<stop offset="0" style="stop-color:#6DC7FF"/>
	<stop offset="1" style="stop-color:#E6ABFF"/>
</linearGradient>
<circle style="fill:url(#SVGID_1__44047);" cx="42" cy="42" r="4"/>
<linearGradient id="SVGID_2__44047" gradientUnits="userSpaceOnUse" x1="42" y1="4" x2="42" y2="62.0345" spreadMethod="reflect">
	<stop offset="0" style="stop-color:#1A6DFF"/>
	<stop offset="1" style="stop-color:#C822FF"/>
</linearGradient>
<path style="fill:url(#SVGID_2__44047);" d="M42,34c-4.411,0-8,3.589-8,8s3.589,8,8,8s8-3.589,8-8S46.411,34,42,34z M42,48  c-3.309,0-6-2.691-6-6s2.691-6,6-6s6,2.691,6,6S45.309,48,42,48z"/>
<linearGradient id="SVGID_3__44047" gradientUnits="userSpaceOnUse" x1="42" y1="4" x2="42" y2="62.0345" spreadMethod="reflect">
	<stop offset="0" style="stop-color:#1A6DFF"/>
	<stop offset="1" style="stop-color:#C822FF"/>
</linearGradient>
<path style="fill:url(#SVGID_3__44047);" d="M54,46c2.206,0,4-1.794,4-4s-1.794-4-4-4h-0.693c-0.141-0.397-0.298-0.788-0.48-1.169  l0.487-0.488c0.756-0.755,1.172-1.759,1.172-2.828c0-1.068-0.416-2.072-1.172-2.828c-1.513-1.513-4.147-1.511-5.656,0l-0.488,0.487  c-0.38-0.182-0.772-0.338-1.169-0.477V30c0-2.206-1.794-4-4-4s-4,1.794-4,4v0.697c-0.397,0.139-0.789,0.295-1.169,0.477  l-0.488-0.487c-1.509-1.511-4.144-1.513-5.656,0c-0.756,0.756-1.172,1.76-1.172,2.828c0,1.069,0.416,2.073,1.172,2.828l0.487,0.488  c-0.182,0.381-0.34,0.772-0.48,1.169H30c-2.206,0-4,1.794-4,4s1.794,4,4,4h0.693c0.141,0.397,0.298,0.788,0.48,1.169l-0.487,0.488  c-0.756,0.755-1.172,1.759-1.172,2.828c0,1.068,0.416,2.072,1.172,2.828c1.513,1.513,4.147,1.511,5.656,0l0.488-0.487  c0.38,0.182,0.772,0.338,1.169,0.477V54c0,2.206,1.794,4,4,4s4-1.794,4-4v-0.697c0.397-0.139,0.789-0.295,1.169-0.477l0.488,0.487  c0.755,0.756,1.759,1.172,2.828,1.172c1.068,0,2.072-0.416,2.828-1.172s1.172-1.76,1.172-2.828c0-1.069-0.416-2.073-1.172-2.828  l-0.487-0.488c0.182-0.381,0.34-0.772,0.48-1.169H54z M54,40c1.103,0,2,0.897,2,2s-0.897,2-2,2h-0.188C53.924,43.34,54,42.673,54,42  s-0.076-1.34-0.188-2H54z M40,30c0-1.103,0.897-2,2-2s2,0.897,2,2v0.202c-1.323-0.219-2.677-0.219-4,0V30z M30,44  c-1.103,0-2-0.897-2-2s0.897-2,2-2h0.188C30.076,40.66,30,41.327,30,42s0.076,1.34,0.188,2H30z M44,54c0,1.103-0.897,2-2,2  s-2-0.897-2-2v-0.202c1.323,0.219,2.677,0.219,4,0V54z M51.899,51.899c-0.756,0.756-2.072,0.756-2.828,0l-1.54-1.54l-0.66,0.369  c-2.973,1.664-6.77,1.664-9.742,0l-0.66-0.369l-1.54,1.54c-0.756,0.756-2.072,0.756-2.828,0c-0.378-0.378-0.586-0.88-0.586-1.414  s0.208-1.036,0.586-1.414l1.54-1.54l-0.369-0.66C32.439,45.385,32,43.7,32,42s0.439-3.385,1.271-4.871l0.369-0.66l-1.54-1.54  c-0.378-0.378-0.586-0.88-0.586-1.414s0.208-1.036,0.586-1.414c0.756-0.756,2.072-0.756,2.828,0l1.54,1.54l0.66-0.369  c2.973-1.664,6.77-1.664,9.742,0l0.66,0.369l1.54-1.54c0.756-0.756,2.072-0.756,2.828,0c0.378,0.378,0.586,0.88,0.586,1.414  s-0.208,1.036-0.586,1.414l-1.54,1.54l0.369,0.66C51.561,38.615,52,40.3,52,42s-0.439,3.385-1.271,4.871l-0.369,0.66l1.54,1.54  c0.378,0.378,0.586,0.88,0.586,1.414S52.277,51.521,51.899,51.899z"/>
<linearGradient id="SVGID_4__44047" gradientUnits="userSpaceOnUse" x1="20" y1="4" x2="20" y2="62.0345" spreadMethod="reflect">
	<stop offset="0" style="stop-color:#1A6DFF"/>
	<stop offset="1" style="stop-color:#C822FF"/>
</linearGradient>
<path style="fill:url(#SVGID_4__44047);" d="M20,14c-3.309,0-6,2.691-6,6s2.691,6,6,6s6-2.691,6-6S23.309,14,20,14z M20,24  c-2.206,0-4-1.794-4-4s1.794-4,4-4s4,1.794,4,4S22.206,24,20,24z"/>
<linearGradient id="SVGID_5__44047" gradientUnits="userSpaceOnUse" x1="20" y1="4" x2="20" y2="62.0345" spreadMethod="reflect">
	<stop offset="0" style="stop-color:#1A6DFF"/>
	<stop offset="1" style="stop-color:#C822FF"/>
</linearGradient>
<path style="fill:url(#SVGID_5__44047);" d="M27.071,31.071c1.068,0,2.072-0.416,2.828-1.172s1.172-1.76,1.172-2.828  c0-1.069-0.416-2.073-1.172-2.828L29.656,24H30c2.206,0,4-1.794,4-4s-1.794-4-4-4h-0.344l0.243-0.243  c0.756-0.755,1.172-1.759,1.172-2.828c0-1.068-0.416-2.072-1.172-2.828c-1.513-1.513-4.147-1.511-5.656,0L24,10.344V10  c0-2.206-1.794-4-4-4s-4,1.794-4,4v0.344l-0.243-0.243c-1.509-1.511-4.145-1.513-5.656,0c-0.756,0.756-1.172,1.76-1.172,2.828  c0,1.069,0.416,2.073,1.172,2.828L10.344,16H10c-2.206,0-4,1.794-4,4s1.794,4,4,4h0.344l-0.243,0.243  c-0.756,0.755-1.172,1.759-1.172,2.828c0,1.068,0.416,2.072,1.172,2.828s1.76,1.172,2.828,1.172c1.069,0,2.073-0.416,2.828-1.172  L16,29.656V30c0,2.206,1.794,4,4,4s4-1.794,4-4v-0.344l0.243,0.243C24.998,30.655,26.002,31.071,27.071,31.071z M28.485,28.485  c-0.756,0.756-2.072,0.756-2.828,0l-0.151-0.151c1.126-0.742,2.086-1.702,2.828-2.828l0.151,0.151  c0.378,0.378,0.586,0.88,0.586,1.414S28.863,28.107,28.485,28.485z M28.485,11.515c0.378,0.378,0.586,0.88,0.586,1.414  s-0.208,1.036-0.586,1.414l-0.151,0.151c-0.742-1.126-1.702-2.086-2.828-2.828l0.151-0.151  C26.413,10.759,27.729,10.759,28.485,11.515z M11.515,11.515c0.756-0.756,2.072-0.756,2.828,0l0.151,0.151  c-1.126,0.742-2.086,1.702-2.828,2.828l-0.151-0.151c-0.378-0.378-0.586-0.88-0.586-1.414S11.137,11.893,11.515,11.515z   M11.515,28.485c-0.378-0.378-0.586-0.88-0.586-1.414s0.208-1.036,0.586-1.414l0.151-0.151c0.742,1.126,1.702,2.086,2.828,2.828  l-0.151,0.151C13.587,29.241,12.271,29.241,11.515,28.485z M22.667,27.534L22,27.77V30c0,1.103-0.897,2-2,2s-2-0.897-2-2v-2.23  l-0.667-0.235c-2.284-0.809-4.059-2.583-4.867-4.867L12.23,22H10c-1.103,0-2-0.897-2-2s0.897-2,2-2h2.23l0.235-0.667  c0.809-2.284,2.583-4.059,4.867-4.867L18,12.23V10c0-1.103,0.897-2,2-2s2,0.897,2,2v2.23l0.667,0.235  c2.284,0.809,4.059,2.583,4.867,4.867L27.77,18H30c1.103,0,2,0.897,2,2s-0.897,2-2,2h-2.23l-0.235,0.667  C26.726,24.951,24.951,26.726,22.667,27.534z"/>
</svg>