<?xml version="1.0" encoding="utf-8"?>
<!-- Generator: Adobe Illustrator 17.1.0, SVG Export Plug-In . SVG Version: 6.00 Build 0)  -->
<!DOCTYPE svg PUBLIC "-//W3C//DTD SVG 1.1//EN" "http://www.w3.org/Graphics/SVG/1.1/DTD/svg11.dtd" [
	<!ENTITY ns_extend "http://ns.adobe.com/Extensibility/1.0/">
	<!ENTITY ns_ai "http://ns.adobe.com/AdobeIllustrator/10.0/">
	<!ENTITY ns_graphs "http://ns.adobe.com/Graphs/1.0/">
	<!ENTITY ns_vars "http://ns.adobe.com/Variables/1.0/">
	<!ENTITY ns_imrep "http://ns.adobe.com/ImageReplacement/1.0/">
	<!ENTITY ns_sfw "http://ns.adobe.com/SaveForWeb/1.0/">
	<!ENTITY ns_custom "http://ns.adobe.com/GenericCustomNamespace/1.0/">
	<!ENTITY ns_adobe_xpath "http://ns.adobe.com/XPath/1.0/">
]>
<svg version="1.1" id="Слой_1" xmlns:x="&ns_extend;" xmlns:i="&ns_ai;" xmlns:graph="&ns_graphs;"
	 xmlns="http://www.w3.org/2000/svg" xmlns:xlink="http://www.w3.org/1999/xlink" x="0px" y="0px" viewBox="0 0 385 550"
	 enable-background="new 0 0 385 550" xml:space="preserve">
<metadata>
	<sfw  xmlns="&ns_sfw;">
		<slices></slices>
		<sliceSourceBounds  height="440.2" width="375.5" x="5.5" y="54.2" bottomLeftOrigin="true"></sliceSourceBounds>
	</sfw>
</metadata>
<linearGradient id="SVGID_1_" gradientUnits="userSpaceOnUse" x1="22.0011" y1="22" x2="22.0011" y2="41.3448" gradientTransform="matrix(6.0156 0 0 6.0156 0 82.5136)">
	<stop  offset="0" style="stop-color:#6DC7FF"/>
	<stop  offset="1" style="stop-color:#E6ABFF"/>
</linearGradient>
<polygon display="none" fill="url(#SVGID_1_)" points="144.1,275 175.3,329.1 151.8,329.1 132.3,295.3 112.9,329.1 89.4,329.1 
	120.6,275 89.4,220.9 112.9,220.9 132.3,254.7 151.8,220.9 175.3,220.9 "/>
<g>
	<path display="none" fill="#FFFFFF" d="M41,371.8c-19.6,0-35.5-15.9-35.5-35.5l0-108.8c0-19.6,15.9-35.5,35.5-35.5
		c9.5,0,18.4,3.7,25.2,10.4c6.7,6.7,10.4,15.6,10.4,25.1l0,108.8c0,9.5-3.7,18.4-10.4,25.1C59.5,368,50.5,371.8,41,371.8"/>
	<path display="none" fill="#FFFFFF" d="M41,201.4c-14.4,0-26,11.6-26,26l0,108.8c0,14.4,11.7,26,26,26c14.4,0,26-11.6,26-26
		l0-108.8C67,213,55.4,201.4,41,201.4"/>
	<path display="none" fill="#FFFFFF" d="M319.8,206.8l-9.6,0l-234.1,0l-9.6,0l0-9.6c0-39.2,21.4-75.7,56.4-97.3l-13.6-24.8
		c-1.7-2.9-2.1-6.6-1.1-10c1-3.4,3.3-6.3,6.4-7.9c1.8-1,4-1.6,6.2-1.6c4.8,0,9.2,2.6,11.6,6.8l14.2,25.9c14.7-5.4,30.3-8.2,46.4-8.2
		c16.3,0,31.9,2.8,46.8,8.2l14.2-26c2.3-4.2,6.7-6.8,11.6-6.8c2.2,0,4.3,0.5,6.2,1.6c3.2,1.8,5.4,4.6,6.4,7.9c1,3.4,0.6,6.9-1.1,10
		L263.5,100c35,21.6,56.3,58.1,56.3,97.2L319.8,206.8z"/>
	<path display="none" fill="#FFFFFF" d="M250.6,103.6l18.1-33.1c1-1.7,0.3-3.9-1.4-4.9c-1.8-1-4-0.3-4.9,1.4l-18.3,33.5
		c-15.4-6.8-32.7-10.7-50.9-10.7c-18.2,0-35.4,3.8-50.8,10.6L124,67.1c-0.9-1.8-3.2-2.4-4.9-1.4c-1.8,0.9-2.4,3.2-1.4,4.9l18.1,33.1
		C100.2,122,76.1,157,76.1,197.2l234.1,0C310.2,157,286.2,122.1,250.6,103.6 M139.9,154.8c-5.4,0-9.8-4.4-9.8-9.8
		c0-5.4,4.4-9.8,9.8-9.8c5.4,0,9.8,4.4,9.8,9.8C149.8,150.4,145.4,154.8,139.9,154.8 M246.5,154.8c-5.4,0-9.8-4.4-9.8-9.8
		c0-5.4,4.4-9.8,9.8-9.8c5.4,0,9.8,4.5,9.8,9.8C256.3,150.4,251.9,154.8,246.5,154.8"/>
	<path display="none" fill="#FFFFFF" d="M149.7,495.8c-19.6,0-35.5-15.9-35.5-35.5l0-48l-9.3,0c-10,0-19.3-3.9-26.4-10.9
		c-7-7-10.9-16.4-10.9-26.4l0-168.6l0-9.6l9.6,0l232.4,0l9.6,0l0,9.6l0,168.7c0,20.6-16.7,37.3-37.3,37.3l-9.4,0l0,48
		c0,19.6-15.9,35.5-35.5,35.5c-9.5,0-18.4-3.7-25.1-10.4c-6.7-6.7-10.4-15.6-10.4-25.1l0-48l-16,0v48
		C185.3,479.8,169.3,495.8,149.7,495.8"/>
	<path display="none" fill="#FFFFFF" d="M77.1,374.9c0,15.4,12.4,27.8,27.7,27.8l18.9,0l0,57.6c0,14.3,11.6,26,26,26
		c14.4,0,26-11.7,26-26l0-57.6l35.1,0l0,57.6c0,14.3,11.7,26,26,26c14.4,0,26-11.7,26-26l0-57.6l19,0c15.3,0,27.7-12.4,27.7-27.7
		l0-168.7l-232.3,0L77.1,374.9z"/>
	<path display="none" fill="#FFFFFF" d="M345.5,371.7c-19.6,0-35.5-15.9-35.5-35.5l0-108.8c0-19.6,15.9-35.6,35.5-35.6
		c19.6,0,35.6,15.9,35.6,35.5l0,108.8C381,355.8,365.1,371.7,345.5,371.7"/>
	<path display="none" fill="#FFFFFF" d="M345.5,201.3c-14.4,0-26,11.6-26,26l0,108.8c0,14.4,11.6,26,26,26c14.4,0,26-11.6,26-26
		l0-108.8C371.4,213,359.8,201.3,345.5,201.3"/>
	<path fill="#A4C439" d="M41,201.4c-14.4,0-26,11.6-26,26l0,108.8c0,14.4,11.6,26,26,26c14.4,0,26-11.6,26-26l0-108.8
		C67,213,55.4,201.4,41,201.4 M250.6,103.6l18.1-33.1c1-1.7,0.3-3.9-1.4-4.9c-1.8-0.9-4-0.3-4.9,1.4l-18.3,33.5
		c-15.4-6.9-32.7-10.7-50.9-10.7c-18.2,0-35.5,3.8-50.8,10.6L124,67.1c-1-1.8-3.1-2.4-4.9-1.4c-1.8,0.9-2.4,3.2-1.4,4.9l18.1,33.1
		C100.2,122,76.1,157,76.1,197.2l234.1,0C310.2,157,286.2,122.1,250.6,103.6 M139.9,154.8c-5.4,0-9.8-4.4-9.8-9.8
		c0-5.4,4.4-9.8,9.8-9.8c5.4,0,9.8,4.4,9.8,9.8C149.8,150.4,145.4,154.8,139.9,154.8 M246.5,154.8c-5.4,0-9.8-4.4-9.8-9.8
		c0-5.4,4.4-9.8,9.8-9.8c5.4,0,9.8,4.5,9.8,9.8C256.3,150.4,251.9,154.8,246.5,154.8 M77.1,206.3l0,168.7
		c0,15.3,12.4,27.7,27.7,27.7l18.9,0l0,57.6c0,14.3,11.7,26,26,26c14.4,0,26-11.7,26-26l0-57.6l35.1,0l0,57.6c0,14.3,11.7,26,26,26
		c14.4,0,26-11.7,26-26l0-57.6l18.9,0c15.3,0,27.7-12.4,27.7-27.7l0-168.7L77.1,206.3z M371.4,227.3c0-14.4-11.6-26-26-26
		c-14.4,0-26,11.6-26,26l0,108.8c0,14.4,11.6,26,26,26c14.4,0,26-11.6,26-26L371.4,227.3z"/>
</g>
</svg>
