<?xml version="1.0" encoding="utf-8"?>
<!-- Generator: Adobe Illustrator 17.1.0, SVG Export Plug-In . SVG Version: 6.00 Build 0)  -->
<!DOCTYPE svg PUBLIC "-//W3C//DTD SVG 1.1//EN" "http://www.w3.org/Graphics/SVG/1.1/DTD/svg11.dtd" [
	<!ENTITY ns_extend "http://ns.adobe.com/Extensibility/1.0/">
	<!ENTITY ns_ai "http://ns.adobe.com/AdobeIllustrator/10.0/">
	<!ENTITY ns_graphs "http://ns.adobe.com/Graphs/1.0/">
	<!ENTITY ns_vars "http://ns.adobe.com/Variables/1.0/">
	<!ENTITY ns_imrep "http://ns.adobe.com/ImageReplacement/1.0/">
	<!ENTITY ns_sfw "http://ns.adobe.com/SaveForWeb/1.0/">
	<!ENTITY ns_custom "http://ns.adobe.com/GenericCustomNamespace/1.0/">
	<!ENTITY ns_adobe_xpath "http://ns.adobe.com/XPath/1.0/">
]>
<svg version="1.1" id="Capa_1" xmlns:x="&ns_extend;" xmlns:i="&ns_ai;" xmlns:graph="&ns_graphs;"
	 xmlns="http://www.w3.org/2000/svg" xmlns:xlink="http://www.w3.org/1999/xlink" x="0px" y="0px" viewBox="0 0 77.7 77.7"
	 enable-background="new 0 0 77.7 77.7" xml:space="preserve">
<metadata>
	<sfw  xmlns="&ns_sfw;">
		<slices></slices>
		<sliceSourceBounds  height="77.7" width="57.5" x="163.1" y="237.3" bottomLeftOrigin="true"></sliceSourceBounds>
	</sfw>
</metadata>
<linearGradient id="SVGID_1_" gradientUnits="userSpaceOnUse" x1="38.8745" y1="-1.075932e-009" x2="38.8745" y2="77.749">
	<stop  offset="0" style="stop-color:#1A6DFF"/>
	<stop  offset="1" style="stop-color:#C822FF"/>
</linearGradient>
<path fill="url(#SVGID_1_)" d="M54,0H14.9c-2.6,0-4.8,2.1-4.8,4.8V73c0,2.6,2.1,4.8,4.8,4.8h47.9c2.6,0,4.8-2.1,4.8-4.8V14.7L54,0z
	 M55.2,7.1l5.9,6.5h-5.9V7.1z M63.6,73c0,0.4-0.3,0.8-0.8,0.8H14.9c-0.4,0-0.8-0.3-0.8-0.8V4.8c0-0.4,0.3-0.8,0.8-0.8h24.4v1.7h-5.2
	v2.9h5.2v5.7h-5.2v2.9h5.2v5.4h-5.2v2.9h5.2v0.2v0.2v4.3h-5.2v2.9h5.2v5.7h-5.2v2.9h5.2v5.4h-5.2V50h2.8C35.9,50,35,50.9,35,52v1.1
	h0v8.6c0,2.2,1.8,4.1,4.1,4.1s4.1-1.8,4.1-4.1v-8.6h0V52c0-1.1-0.9-2-2-2h-0.1v-4.4h4.8v-2.9h-4.8v-5.4h4.8v-2.9h-4.8v-5.7h4.8v-2.9
	h-4.8v-4.7h4.8v-2.9h-4.8v-5.4h4.8V9.8h-4.8V4.2h4.8V4h5.3v11.6c0,1.1,0.9,2,2,2h10.4L63.6,73L63.6,73z M41.7,56.7v4.8
	c0,1.5-1.2,2.6-2.6,2.6c-1.4,0-2.6-1.2-2.6-2.6v-4.8H41.7z"/>
</svg>
