<?xml version="1.0" encoding="iso-8859-1"?>
<!-- Generator: Adobe Illustrator 20.1.0, SVG Export Plug-In . SVG Version: 6.00 Build 0)  -->
<svg xmlns="http://www.w3.org/2000/svg" xmlns:xlink="http://www.w3.org/1999/xlink" version="1.1" id="&#1057;&#1083;&#1086;&#1081;_1" x="0px" y="0px" viewBox="0 0 64 64" style="enable-background:new 0 0 64 64;" xml:space="preserve">
<linearGradient id="SVGID_1__43643" gradientUnits="userSpaceOnUse" x1="19" y1="6" x2="19" y2="58.693" spreadMethod="reflect">
	<stop offset="0" style="stop-color:#1A6DFF"/>
	<stop offset="1" style="stop-color:#C822FF"/>
</linearGradient>
<path style="fill:url(#SVGID_1__43643);" d="M23,58h-8c-2.757,0-5-2.243-5-5V11c0-2.757,2.243-5,5-5h8c2.757,0,5,2.243,5,5v42  C28,55.757,25.757,58,23,58z M15,8c-1.654,0-3,1.346-3,3v42c0,1.654,1.346,3,3,3h8c1.654,0,3-1.346,3-3V11c0-1.654-1.346-3-3-3H15z"/>
<linearGradient id="SVGID_2__43643" gradientUnits="userSpaceOnUse" x1="45" y1="6" x2="45" y2="58.693" spreadMethod="reflect">
	<stop offset="0" style="stop-color:#1A6DFF"/>
	<stop offset="1" style="stop-color:#C822FF"/>
</linearGradient>
<path style="fill:url(#SVGID_2__43643);" d="M49,58h-8c-2.757,0-5-2.243-5-5V11c0-2.757,2.243-5,5-5h8c2.757,0,5,2.243,5,5v42  C54,55.757,51.757,58,49,58z M41,8c-1.654,0-3,1.346-3,3v42c0,1.654,1.346,3,3,3h8c1.654,0,3-1.346,3-3V11c0-1.654-1.346-3-3-3H41z"/>
<linearGradient id="SVGID_3__43643" gradientUnits="userSpaceOnUse" x1="19" y1="10.8333" x2="19" y2="53.3885" spreadMethod="reflect">
	<stop offset="0" style="stop-color:#6DC7FF"/>
	<stop offset="1" style="stop-color:#E6ABFF"/>
</linearGradient>
<path style="fill:url(#SVGID_3__43643);" d="M21,53h-4c-1.105,0-2-0.895-2-2V13c0-1.105,0.895-2,2-2h4c1.105,0,2,0.895,2,2v38  C23,52.105,22.105,53,21,53z"/>
<linearGradient id="SVGID_4__43643" gradientUnits="userSpaceOnUse" x1="45" y1="10.8333" x2="45" y2="53.3885" spreadMethod="reflect">
	<stop offset="0" style="stop-color:#6DC7FF"/>
	<stop offset="1" style="stop-color:#E6ABFF"/>
</linearGradient>
<path style="fill:url(#SVGID_4__43643);" d="M47,53h-4c-1.105,0-2-0.895-2-2V13c0-1.105,0.895-2,2-2h4c1.105,0,2,0.895,2,2v38  C49,52.105,48.105,53,47,53z"/>
</svg>
