<?xml version="1.0" encoding="iso-8859-1"?>
<!-- Generator: Adobe Illustrator 20.1.0, SVG Export Plug-In . SVG Version: 6.00 Build 0)  -->
<svg xmlns="http://www.w3.org/2000/svg" xmlns:xlink="http://www.w3.org/1999/xlink" version="1.1" id="&#1057;&#1083;&#1086;&#1081;_1" x="0px" y="0px" viewBox="0 0 64 64" style="enable-background:new 0 0 64 64;" xml:space="preserve">
<linearGradient id="SVGID_1__44809" gradientUnits="userSpaceOnUse" x1="9.5" y1="27.9167" x2="9.5" y2="36.0154" spreadMethod="reflect">
	<stop offset="0" style="stop-color:#6DC7FF"/>
	<stop offset="1" style="stop-color:#E6ABFF"/>
</linearGradient>
<path style="fill:url(#SVGID_1__44809);" d="M11,36H9c-0.552,0-1-0.448-1-1v-6c0-0.552,0.448-1,1-1h2V36z"/>
<linearGradient id="SVGID_2__44809" gradientUnits="userSpaceOnUse" x1="34.5" y1="28.6667" x2="34.5" y2="35.269" spreadMethod="reflect">
	<stop offset="0" style="stop-color:#6DC7FF"/>
	<stop offset="1" style="stop-color:#E6ABFF"/>
</linearGradient>
<path style="fill:url(#SVGID_2__44809);" d="M33,35c1.657,0,3-1.343,3-3c0-1.657-1.343-3-3-3V35z"/>
<linearGradient id="SVGID_3__44809" gradientUnits="userSpaceOnUse" x1="23" y1="9.1667" x2="23" y2="55.3697" spreadMethod="reflect">
	<stop offset="0" style="stop-color:#1A6DFF"/>
	<stop offset="1" style="stop-color:#C822FF"/>
</linearGradient>
<path style="fill:url(#SVGID_3__44809);" d="M33,25h-2.747c0.557-7.436,1.909-11.629,2.69-12h0.019c0.552,0.249,1.9,3.016,2.615,10.101  l1.99-0.201C36.771,15.004,35.233,11,33,11h-0.441c-1.254,0-2.455,0.464-3.385,1.308L19.613,21H14c-1.654,0-3,1.346-3,3v2H9  c-1.654,0-3,1.346-3,3v6c0,1.654,1.346,3,3,3h2v2c0,1.654,1.346,3,3,3h5.613l9.562,8.692C30.104,52.536,31.305,53,32.559,53H33  c2.233,0,3.771-4.004,4.568-11.899l-1.99-0.201c-0.72,7.127-2.08,9.888-2.53,10.107c-0.855-0.345-2.231-4.545-2.793-12.007H33  c3.859,0,7-3.141,7-7S36.859,25,33,25z M9,36c-0.552,0-1-0.448-1-1v-6c0-0.552,0.448-1,1-1h2v8H9z M19,41h-5c-0.552,0-1-0.448-1-1  V24c0-0.552,0.448-1,1-1h1v9h2v-9h2V41z M21,41.557V22.443l9.147-8.317C28.032,19.818,28,31.355,28,32s0.032,12.18,2.147,17.873  L21,41.557z M33,37h-2.871C30.049,35.448,30,33.79,30,32s0.049-3.448,0.128-5H33c2.757,0,5,2.243,5,5S35.757,37,33,37z"/>
<linearGradient id="SVGID_4__44809" gradientUnits="userSpaceOnUse" x1="43.1377" y1="9.1667" x2="43.1377" y2="55.3697" spreadMethod="reflect">
	<stop offset="0" style="stop-color:#1A6DFF"/>
	<stop offset="1" style="stop-color:#C822FF"/>
</linearGradient>
<path style="fill:url(#SVGID_4__44809);" d="M41.669,22.312l-1.334,1.49C42.664,25.887,44,28.875,44,32c0,3.153-1.357,6.161-3.725,8.25  l1.324,1.5C44.396,39.281,46,35.728,46,32C46,28.308,44.422,24.776,41.669,22.312z"/>
<linearGradient id="SVGID_5__44809" gradientUnits="userSpaceOnUse" x1="48.165" y1="9.1667" x2="48.165" y2="55.3697" spreadMethod="reflect">
	<stop offset="0" style="stop-color:#1A6DFF"/>
	<stop offset="1" style="stop-color:#C822FF"/>
</linearGradient>
<path style="fill:url(#SVGID_5__44809);" d="M45.664,17.836l-1.334,1.49C47.934,22.55,50,27.169,50,32c0,4.829-2.065,9.447-5.667,12.671  l1.334,1.49C49.691,42.559,52,37.397,52,32C52,26.601,49.69,21.438,45.664,17.836z"/>
<linearGradient id="SVGID_6__44809" gradientUnits="userSpaceOnUse" x1="53.1665" y1="9.1667" x2="53.1665" y2="55.3697" spreadMethod="reflect">
	<stop offset="0" style="stop-color:#1A6DFF"/>
	<stop offset="1" style="stop-color:#C822FF"/>
</linearGradient>
<path style="fill:url(#SVGID_6__44809);" d="M49.67,13.369l-1.334,1.49C53.206,19.22,56,25.468,56,32c0,6.534-2.795,12.783-7.667,17.144  l1.334,1.49C54.963,45.895,58,39.103,58,32C58,24.899,54.964,18.109,49.67,13.369z"/>
</svg>
