<?xml version="1.0" encoding="iso-8859-1"?>
<!-- Generator: Adobe Illustrator 20.1.0, SVG Export Plug-In . SVG Version: 6.00 Build 0)  -->
<svg xmlns="http://www.w3.org/2000/svg" xmlns:xlink="http://www.w3.org/1999/xlink" version="1.1" id="&#1057;&#1083;&#1086;&#1081;_1" x="0px" y="0px" viewBox="0 0 64 64" style="enable-background:new 0 0 64 64;" xml:space="preserve">
<linearGradient id="SVGID_1__44826" gradientUnits="userSpaceOnUse" x1="35" y1="10.75" x2="35" y2="26.1433" spreadMethod="reflect">
	<stop offset="0" style="stop-color:#6DC7FF"/>
	<stop offset="1" style="stop-color:#E6ABFF"/>
</linearGradient>
<polygon style="fill:url(#SVGID_1__44826);" points="42,17 34,17 28,11 36,11 "/>
<linearGradient id="SVGID_2__44826" gradientUnits="userSpaceOnUse" x1="49" y1="10.75" x2="49" y2="26.1433" spreadMethod="reflect">
	<stop offset="0" style="stop-color:#6DC7FF"/>
	<stop offset="1" style="stop-color:#E6ABFF"/>
</linearGradient>
<polygon style="fill:url(#SVGID_2__44826);" points="56,17 48,17 42,11 50,11 "/>
<linearGradient id="SVGID_3__44826" gradientUnits="userSpaceOnUse" x1="21" y1="10.75" x2="21" y2="26.1433" spreadMethod="reflect">
	<stop offset="0" style="stop-color:#6DC7FF"/>
	<stop offset="1" style="stop-color:#E6ABFF"/>
</linearGradient>
<polygon style="fill:url(#SVGID_3__44826);" points="28,17 20,17 14,11 22,11 "/>
<linearGradient id="SVGID_4__44826" gradientUnits="userSpaceOnUse" x1="35" y1="10.75" x2="35" y2="26.1433" spreadMethod="reflect">
	<stop offset="0" style="stop-color:#6DC7FF"/>
	<stop offset="1" style="stop-color:#E6ABFF"/>
</linearGradient>
<polygon style="fill:url(#SVGID_4__44826);" points="28,25 36,25 42,19 34,19 "/>
<linearGradient id="SVGID_5__44826" gradientUnits="userSpaceOnUse" x1="21" y1="10.75" x2="21" y2="26.1433" spreadMethod="reflect">
	<stop offset="0" style="stop-color:#6DC7FF"/>
	<stop offset="1" style="stop-color:#E6ABFF"/>
</linearGradient>
<polygon style="fill:url(#SVGID_5__44826);" points="14,25 22,25 28,19 20,19 "/>
<linearGradient id="SVGID_6__44826" gradientUnits="userSpaceOnUse" x1="49" y1="10.75" x2="49" y2="26.1433" spreadMethod="reflect">
	<stop offset="0" style="stop-color:#6DC7FF"/>
	<stop offset="1" style="stop-color:#E6ABFF"/>
</linearGradient>
<polygon style="fill:url(#SVGID_6__44826);" points="42,25 50,25 56,19 48,19 "/>
<linearGradient id="SVGID_7__44826" gradientUnits="userSpaceOnUse" x1="11" y1="10.75" x2="11" y2="26.1433" spreadMethod="reflect">
	<stop offset="0" style="stop-color:#6DC7FF"/>
	<stop offset="1" style="stop-color:#E6ABFF"/>
</linearGradient>
<polygon style="fill:url(#SVGID_7__44826);" points="8,25 14,19 8,19 "/>
<linearGradient id="SVGID_8__44826" gradientUnits="userSpaceOnUse" x1="32" y1="8.1667" x2="32" y2="55.681" spreadMethod="reflect">
	<stop offset="0" style="stop-color:#1A6DFF"/>
	<stop offset="1" style="stop-color:#C822FF"/>
</linearGradient>
<path style="fill:url(#SVGID_8__44826);" d="M55,9H9c-1.654,0-3,1.346-3,3v5v2v8v25c0,1.654,1.346,3,3,3h46c1.654,0,3-1.346,3-3V27v-8v-2  v-5C58,10.346,56.654,9,55,9z M8,12c0-0.552,0.448-1,1-1h2.848l5.796,6H8V12z M56,52c0,0.552-0.448,1-1,1H9c-0.552,0-1-0.448-1-1V27  h48V52z M56,25H8v-6h48V25z M20.425,17l-5.796-6H55c0.552,0,1,0.448,1,1v5H20.425z"/>
<linearGradient id="SVGID_9__44826" gradientUnits="userSpaceOnUse" x1="32" y1="8.1667" x2="32" y2="55.681" spreadMethod="reflect">
	<stop offset="0" style="stop-color:#1A6DFF"/>
	<stop offset="1" style="stop-color:#C822FF"/>
</linearGradient>
<path style="fill:url(#SVGID_9__44826);" d="M14,49h36c1.103,0,2-0.897,2-2V35c0-1.103-0.897-2-2-2H14c-1.103,0-2,0.897-2,2v12  C12,48.103,12.897,49,14,49z M14,35h36l0.002,12H14V35z"/>
<linearGradient id="SVGID_10__44826" gradientUnits="userSpaceOnUse" x1="27" y1="8.1667" x2="27" y2="55.681" spreadMethod="reflect">
	<stop offset="0" style="stop-color:#1A6DFF"/>
	<stop offset="1" style="stop-color:#C822FF"/>
</linearGradient>
<path style="fill:url(#SVGID_10__44826);" d="M36,37H18c-1.103,0-2,0.897-2,2v4c0,1.103,0.897,2,2,2h18c1.103,0,2-0.897,2-2v-4  C38,37.897,37.103,37,36,37z M29,39v4h-4v-4H29z M18,39h5v4h-5V39z M31,43v-4h5l0.002,4H31z"/>
<linearGradient id="SVGID_11__44826" gradientUnits="userSpaceOnUse" x1="44" y1="8.1667" x2="44" y2="55.681" spreadMethod="reflect">
	<stop offset="0" style="stop-color:#1A6DFF"/>
	<stop offset="1" style="stop-color:#C822FF"/>
</linearGradient>
<path style="fill:url(#SVGID_11__44826);" d="M46,37h-4c-1.103,0-2,0.897-2,2v4c0,1.103,0.897,2,2,2h4c1.103,0,2-0.897,2-2v-4  C48,37.897,47.103,37,46,37z M42,43v-4h4l0.002,4H42z"/>
<linearGradient id="SVGID_12__44826" gradientUnits="userSpaceOnUse" x1="32" y1="8.1667" x2="32" y2="55.681" spreadMethod="reflect">
	<stop offset="0" style="stop-color:#1A6DFF"/>
	<stop offset="1" style="stop-color:#C822FF"/>
</linearGradient>
<rect x="12" y="29" style="fill:url(#SVGID_12__44826);" width="40" height="2"/>
</svg>
