<?xml version="1.0" encoding="iso-8859-1"?>
<!-- Generator: Adobe Illustrator 20.1.0, SVG Export Plug-In . SVG Version: 6.00 Build 0)  -->
<svg xmlns="http://www.w3.org/2000/svg" xmlns:xlink="http://www.w3.org/1999/xlink" version="1.1" id="&#1057;&#1083;&#1086;&#1081;_1" x="0px" y="0px" viewBox="0 0 64 64" style="enable-background:new 0 0 64 64;" xml:space="preserve">
<linearGradient id="SVGID_1__44029" gradientUnits="userSpaceOnUse" x1="44" y1="14.3333" x2="44" y2="23.0016" spreadMethod="reflect">
	<stop offset="0" style="stop-color:#6DC7FF"/>
	<stop offset="1" style="stop-color:#E6ABFF"/>
</linearGradient>
<circle style="fill:url(#SVGID_1__44029);" cx="44" cy="19" r="4"/>
<linearGradient id="SVGID_2__44029" gradientUnits="userSpaceOnUse" x1="32" y1="3.6667" x2="32" y2="58.9902" spreadMethod="reflect">
	<stop offset="0" style="stop-color:#1A6DFF"/>
	<stop offset="1" style="stop-color:#C822FF"/>
</linearGradient>
<path style="fill:url(#SVGID_2__44029);" d="M57,19c0-7.168-5.832-13-13-13c-3.475,0-6.74,1.352-9.195,3.806  c-1.222,1.221-2.159,2.646-2.803,4.194H14c-1.654,0-3,1.346-3,3v1h-1c-1.654,0-3,1.346-3,3v34c0,1.654,1.346,3,3,3h32  c1.654,0,3-1.346,3-3.001L44.999,54H46c1.654,0,3-1.346,3-3V31h-0.049c1.567-0.645,3.01-1.587,4.244-2.819  C55.648,25.729,57,22.469,57,19z M13,17c0-0.552,0.448-1,1-1h17.353c-0.153,0.654-0.265,1.32-0.316,2H13V17z M47,51  c0,0.552-0.448,1-1,1h-1.002l-0.012-20.053c0.684-0.051,1.355-0.164,2.014-0.318V51z M43.998,30c-0.004,0-0.008,0-0.012,0h-1.002  L43,55.008C43,55.56,42.552,56,42,56H10c-0.552,0-1-0.448-1-1V21c0-0.552,0.448-1,1-1h23v-1.001c0-2.939,1.141-5.701,3.218-7.778  C38.296,9.145,41.06,8.002,44,8.002c6.065,0,11,4.937,11,11.002c0,2.935-1.143,5.696-3.219,7.77C49.703,28.85,46.939,30,43.998,30z"/>
<linearGradient id="SVGID_3__44029" gradientUnits="userSpaceOnUse" x1="40" y1="3.6667" x2="40" y2="58.9902" spreadMethod="reflect">
	<stop offset="0" style="stop-color:#1A6DFF"/>
	<stop offset="1" style="stop-color:#C822FF"/>
</linearGradient>
<path style="fill:url(#SVGID_3__44029);" d="M44,11c-4.411,0-8,3.589-8,8h2c0-3.309,2.691-6,6-6V11z"/>
<linearGradient id="SVGID_4__44029" gradientUnits="userSpaceOnUse" x1="48" y1="3.6667" x2="48" y2="58.9902" spreadMethod="reflect">
	<stop offset="0" style="stop-color:#1A6DFF"/>
	<stop offset="1" style="stop-color:#C822FF"/>
</linearGradient>
<path style="fill:url(#SVGID_4__44029);" d="M50,19c0,3.309-2.691,6-6,6v2c4.411,0,8-3.589,8-8H50z"/>
<linearGradient id="SVGID_5__44029" gradientUnits="userSpaceOnUse" x1="26" y1="3.6667" x2="26" y2="58.9902" spreadMethod="reflect">
	<stop offset="0" style="stop-color:#1A6DFF"/>
	<stop offset="1" style="stop-color:#C822FF"/>
</linearGradient>
<path style="fill:url(#SVGID_5__44029);" d="M35,27H25c-1.654,0-3,1.346-3,3v4v1v5.025C21.162,39.391,20.13,39,19,39c-2.757,0-5,2.243-5,5  s2.243,5,5,5s5-2.243,5-5v-9h12v5.025C35.162,39.391,34.13,39,33,39c-2.757,0-5,2.243-5,5s2.243,5,5,5s5-2.243,5-5v-9v-1v-4  C38,28.346,36.654,27,35,27z M19,47c-1.654,0-3-1.346-3-3s1.346-3,3-3s3,1.346,3,3S20.654,47,19,47z M33,47c-1.654,0-3-1.346-3-3  s1.346-3,3-3s3,1.346,3,3S34.654,47,33,47z M24,30c0-0.552,0.448-1,1-1h10c0.552,0,1,0.448,1,1v3H24V30z"/>
</svg>
