<?xml version="1.0" encoding="iso-8859-1"?>
<!-- Generator: Adobe Illustrator 20.1.0, SVG Export Plug-In . SVG Version: 6.00 Build 0)  -->
<svg xmlns="http://www.w3.org/2000/svg" xmlns:xlink="http://www.w3.org/1999/xlink" version="1.1" id="&#1057;&#1083;&#1086;&#1081;_1" x="0px" y="0px" viewBox="0 0 64 64" style="enable-background:new 0 0 64 64;" xml:space="preserve">
<linearGradient id="SVGID_1__44828" gradientUnits="userSpaceOnUse" x1="32" y1="28.6667" x2="32" y2="39.5013" spreadMethod="reflect">
	<stop offset="0" style="stop-color:#6DC7FF"/>
	<stop offset="1" style="stop-color:#E6ABFF"/>
</linearGradient>
<circle style="fill:url(#SVGID_1__44828);" cx="32" cy="34" r="5"/>
<linearGradient id="SVGID_2__44828" gradientUnits="userSpaceOnUse" x1="32" y1="5" x2="32" y2="58.8447" spreadMethod="reflect">
	<stop offset="0" style="stop-color:#1A6DFF"/>
	<stop offset="1" style="stop-color:#C822FF"/>
</linearGradient>
<path style="fill:url(#SVGID_2__44828);" d="M53,10h-1V9c0-1.654-1.346-3-3-3H39c-1.654,0-3,1.346-3,3v1h-1h-3C18.767,10,8,20.767,8,34  s10.767,24,24,24s24-10.767,24-24V17v-1v-3C56,11.346,54.654,10,53,10z M38,9c0-0.552,0.448-1,1-1h10c0.552,0,1,0.448,1,1v1H38V9z   M32,56c-12.131,0-22-9.869-22-22s9.869-22,22-22h0.184C32.072,12.314,32,12.647,32,13v3c-9.925,0-18,8.075-18,18h2  c0-8.822,7.178-16,16-16h0.184c0.414,1.162,1.514,2,2.816,2h3v1c0,1.654,1.346,3,3,3h1v4h2v-4h1c1.654,0,3-1.346,3-3v-1h5  c0.352,0,0.686-0.072,1-0.184V34C54,46.131,44.131,56,32,56z M41,22c-0.552,0-1-0.448-1-1v-1h6v1c0,0.552-0.448,1-1,1H41z M54,17  c0,0.552-0.448,1-1,1H35c-0.552,0-1-0.448-1-1v-4c0-0.552,0.448-1,1-1h1h17c0.552,0,1,0.448,1,1v3V17z"/>
<linearGradient id="SVGID_3__44828" gradientUnits="userSpaceOnUse" x1="32" y1="5" x2="32" y2="58.8447" spreadMethod="reflect">
	<stop offset="0" style="stop-color:#1A6DFF"/>
	<stop offset="1" style="stop-color:#C822FF"/>
</linearGradient>
<path style="fill:url(#SVGID_3__44828);" d="M38,34c0-3.309-2.691-6-6-6s-6,2.691-6,6s2.691,6,6,6S38,37.309,38,34z M28,34  c0-2.206,1.794-4,4-4s4,1.794,4,4s-1.794,4-4,4S28,36.206,28,34z"/>
<linearGradient id="SVGID_4__44828" gradientUnits="userSpaceOnUse" x1="26" y1="5" x2="26" y2="58.8447" spreadMethod="reflect">
	<stop offset="0" style="stop-color:#1A6DFF"/>
	<stop offset="1" style="stop-color:#C822FF"/>
</linearGradient>
<path style="fill:url(#SVGID_4__44828);" d="M32,22c-6.617,0-12,5.383-12,12h2c0-5.514,4.486-10,10-10V22z"/>
<linearGradient id="SVGID_5__44828" gradientUnits="userSpaceOnUse" x1="38" y1="5" x2="38" y2="58.8447" spreadMethod="reflect">
	<stop offset="0" style="stop-color:#1A6DFF"/>
	<stop offset="1" style="stop-color:#C822FF"/>
</linearGradient>
<path style="fill:url(#SVGID_5__44828);" d="M32,46c6.617,0,12-5.383,12-12h-2c0,5.514-4.486,10-10,10V46z"/>
<linearGradient id="SVGID_6__44828" gradientUnits="userSpaceOnUse" x1="41" y1="5" x2="41" y2="58.8447" spreadMethod="reflect">
	<stop offset="0" style="stop-color:#1A6DFF"/>
	<stop offset="1" style="stop-color:#C822FF"/>
</linearGradient>
<path style="fill:url(#SVGID_6__44828);" d="M32,50v2c9.925,0,18-8.075,18-18h-2C48,42.822,40.822,50,32,50z"/>
</svg>
