<?xml version="1.0" encoding="iso-8859-1"?>
<!-- Generator: Adobe Illustrator 20.1.0, SVG Export Plug-In . SVG Version: 6.00 Build 0)  -->
<svg xmlns="http://www.w3.org/2000/svg" xmlns:xlink="http://www.w3.org/1999/xlink" version="1.1" id="&#1057;&#1083;&#1086;&#1081;_1" x="0px" y="0px" viewBox="0 0 64 64" style="enable-background:new 0 0 64 64;" xml:space="preserve">
<linearGradient id="SVGID_1__44015" gradientUnits="userSpaceOnUse" x1="17" y1="34.9167" x2="17" y2="42.4282" spreadMethod="reflect">
	<stop offset="0" style="stop-color:#6DC7FF"/>
	<stop offset="1" style="stop-color:#E6ABFF"/>
</linearGradient>
<path style="fill:url(#SVGID_1__44015);" d="M22,41c0,0.552-0.448,1-1,1h-8c-0.552,0-1-0.448-1-1v-5c0-0.552,0.448-1,1-1h8  c0.552,0,1,0.448,1,1V41z"/>
<linearGradient id="SVGID_2__44015" gradientUnits="userSpaceOnUse" x1="37" y1="34.9167" x2="37" y2="42.4282" spreadMethod="reflect">
	<stop offset="0" style="stop-color:#6DC7FF"/>
	<stop offset="1" style="stop-color:#E6ABFF"/>
</linearGradient>
<path style="fill:url(#SVGID_2__44015);" d="M42,41c0,0.552-0.448,1-1,1h-8c-0.552,0-1-0.448-1-1v-5c0-0.552,0.448-1,1-1h8  c0.552,0,1,0.448,1,1V41z"/>
<linearGradient id="SVGID_3__44015" gradientUnits="userSpaceOnUse" x1="32" y1="9.1667" x2="32" y2="54.8333" spreadMethod="reflect">
	<stop offset="0" style="stop-color:#1A6DFF"/>
	<stop offset="1" style="stop-color:#C822FF"/>
</linearGradient>
<path style="fill:url(#SVGID_3__44015);" d="M47,10c-4.653,0-8.631,2.909-10.236,7H31c-1.641,0-3.088,0.806-4,2.031  C26.088,17.806,24.641,17,23,17H11c-2.757,0-5,2.243-5,5v20v2v3c0,2.757,2.243,5,5,5h13c1.103,0,2,0.897,2,2h2c0-1.103,0.897-2,2-2  h13c2.757,0,5-2.243,5-5v-3v-2V31.949C53.598,31.442,58,26.728,58,21C58,14.935,53.065,10,47,10z M24,50H11  c-1.243,0-2.311-0.76-2.766-1.84C9.027,48.689,9.977,49,11,49h12c1.015,0,1.91,0.509,2.453,1.283C25.002,50.106,24.514,50,24,50z   M23,47H11c-1.654,0-3-1.346-3-3v-2V22c0-1.654,1.346-3,3-3h12c1.654,0,3,1.346,3,3v6v20.028C25.165,47.389,24.131,47,23,47z M43,50  H30c-0.514,0-1.002,0.106-1.453,0.283C29.09,49.509,29.985,49,31,49h12c1.023,0,1.973-0.311,2.766-0.84  C45.312,49.24,44.243,50,43,50z M46,42v2c0,1.654-1.346,3-3,3H31c-1.131,0-2.165,0.389-3,1.028V28v-6c0-1.654,1.346-3,3-3h5.191  C36.071,19.65,36,20.316,36,21s0.071,1.35,0.191,2H32v2h4.764c0.276,0.705,0.62,1.375,1.028,2H32v2h7.474  c1.742,1.639,4.01,2.721,6.526,2.949V42z M47,30c-4.963,0-9-4.037-9-9s4.037-9,9-9s9,4.037,9,9S51.963,30,47,30z"/>
<linearGradient id="SVGID_4__44015" gradientUnits="userSpaceOnUse" x1="17" y1="9.1667" x2="17" y2="54.8333" spreadMethod="reflect">
	<stop offset="0" style="stop-color:#1A6DFF"/>
	<stop offset="1" style="stop-color:#C822FF"/>
</linearGradient>
<rect x="12" y="23" style="fill:url(#SVGID_4__44015);" width="10" height="2"/>
<linearGradient id="SVGID_5__44015" gradientUnits="userSpaceOnUse" x1="17" y1="9.1667" x2="17" y2="54.8333" spreadMethod="reflect">
	<stop offset="0" style="stop-color:#1A6DFF"/>
	<stop offset="1" style="stop-color:#C822FF"/>
</linearGradient>
<rect x="12" y="27" style="fill:url(#SVGID_5__44015);" width="10" height="2"/>
<linearGradient id="SVGID_6__44015" gradientUnits="userSpaceOnUse" x1="17" y1="9.1667" x2="17" y2="54.8333" spreadMethod="reflect">
	<stop offset="0" style="stop-color:#1A6DFF"/>
	<stop offset="1" style="stop-color:#C822FF"/>
</linearGradient>
<rect x="12" y="31" style="fill:url(#SVGID_6__44015);" width="10" height="2"/>
<linearGradient id="SVGID_7__44015" gradientUnits="userSpaceOnUse" x1="37" y1="9.1667" x2="37" y2="54.8333" spreadMethod="reflect">
	<stop offset="0" style="stop-color:#1A6DFF"/>
	<stop offset="1" style="stop-color:#C822FF"/>
</linearGradient>
<rect x="32" y="31" style="fill:url(#SVGID_7__44015);" width="10" height="2"/>
<linearGradient id="SVGID_8__44015" gradientUnits="userSpaceOnUse" x1="47" y1="9.1667" x2="47" y2="54.8333" spreadMethod="reflect">
	<stop offset="0" style="stop-color:#1A6DFF"/>
	<stop offset="1" style="stop-color:#C822FF"/>
</linearGradient>
<rect x="46" y="15" style="fill:url(#SVGID_8__44015);" width="2" height="8"/>
<linearGradient id="SVGID_9__44015" gradientUnits="userSpaceOnUse" x1="47" y1="9.1667" x2="47" y2="54.8333" spreadMethod="reflect">
	<stop offset="0" style="stop-color:#1A6DFF"/>
	<stop offset="1" style="stop-color:#C822FF"/>
</linearGradient>
<rect x="46" y="25" style="fill:url(#SVGID_9__44015);" width="2" height="2"/>
</svg>
