<?xml version="1.0" encoding="utf-8"?>
<!-- Generator: Adobe Illustrator 17.1.0, SVG Export Plug-In . SVG Version: 6.00 Build 0)  -->
<!DOCTYPE svg PUBLIC "-//W3C//DTD SVG 1.1//EN" "http://www.w3.org/Graphics/SVG/1.1/DTD/svg11.dtd" [
	<!ENTITY ns_extend "http://ns.adobe.com/Extensibility/1.0/">
	<!ENTITY ns_ai "http://ns.adobe.com/AdobeIllustrator/10.0/">
	<!ENTITY ns_graphs "http://ns.adobe.com/Graphs/1.0/">
	<!ENTITY ns_vars "http://ns.adobe.com/Variables/1.0/">
	<!ENTITY ns_imrep "http://ns.adobe.com/ImageReplacement/1.0/">
	<!ENTITY ns_sfw "http://ns.adobe.com/SaveForWeb/1.0/">
	<!ENTITY ns_custom "http://ns.adobe.com/GenericCustomNamespace/1.0/">
	<!ENTITY ns_adobe_xpath "http://ns.adobe.com/XPath/1.0/">
]>
<svg version="1.1" id="Capa_1" xmlns:x="&ns_extend;" xmlns:i="&ns_ai;" xmlns:graph="&ns_graphs;"
	 xmlns="http://www.w3.org/2000/svg" xmlns:xlink="http://www.w3.org/1999/xlink" x="0px" y="0px" viewBox="0 0 385 550"
	 enable-background="new 0 0 385 550" xml:space="preserve">
<metadata>
	<sfw  xmlns="&ns_sfw;">
		<slices></slices>
		<sliceSourceBounds  height="463.1" width="377" x="4.8" y="42.5" bottomLeftOrigin="true"></sliceSourceBounds>
	</sfw>
</metadata>
<g>
	<linearGradient id="SVGID_1_" gradientUnits="userSpaceOnUse" x1="86.8717" y1="46.2271" x2="86.8717" y2="506.8988">
		<stop  offset="0" style="stop-color:#1A6DFF"/>
		<stop  offset="1" style="stop-color:#C822FF"/>
	</linearGradient>
	<path fill="url(#SVGID_1_)" d="M98.2,342.4c0-7.7-5.3-12.3-14.8-12.3c-3.8,0-6.4,0.4-7.8,0.7v24.7c1.6,0.4,3.6,0.5,6.3,0.5
		C92,356,98.2,350.9,98.2,342.4z"/>
	<linearGradient id="SVGID_2_" gradientUnits="userSpaceOnUse" x1="165.3017" y1="46.2271" x2="165.3017" y2="506.8988">
		<stop  offset="0" style="stop-color:#1A6DFF"/>
		<stop  offset="1" style="stop-color:#C822FF"/>
	</linearGradient>
	<path fill="url(#SVGID_2_)" d="M156.4,330.3c-4.2,0-6.9,0.4-8.6,0.7v54.6c1.6,0.4,4.2,0.4,6.6,0.4c17.1,0.1,28.3-9.3,28.3-29.2
		C182.8,339.5,172.7,330.3,156.4,330.3z"/>
	<linearGradient id="SVGID_3_" gradientUnits="userSpaceOnUse" x1="193.2828" y1="46.2271" x2="193.2828" y2="506.8988">
		<stop  offset="0" style="stop-color:#1A6DFF"/>
		<stop  offset="1" style="stop-color:#C822FF"/>
	</linearGradient>
	<path fill="url(#SVGID_3_)" d="M264.7,44.4h-186c-27.2,0-49.3,22.1-49.3,49.3V276h-4.8c-11,0-19.9,8.9-19.9,19.9v120.4
		c0,11,8.9,19.9,19.9,19.9h4.8v22.1c0,27.2,22.1,49.3,49.3,49.3h253.8c27.2,0,49.3-22.1,49.3-49.3V161.1L264.7,44.4z M56.9,317.6
		c5.8-1,14-1.7,25.5-1.7c11.6,0,20,2.2,25.5,6.7c5.3,4.2,8.9,11.2,8.9,19.3c0,8.2-2.7,15.1-7.7,19.8c-6.4,6.1-16,8.8-27.1,8.8
		c-2.5,0-4.7-0.1-6.4-0.4V400H56.9V317.6z M332.5,477.3H78.7c-10.5,0-19.1-8.6-19.1-19.1v-22.1h236.6c11,0,19.9-8.9,19.9-19.9V295.8
		c0-11-8.9-19.9-19.9-19.9H59.7V93.7c0-10.5,8.6-19.1,19.1-19.1l174.7-0.2V139c0,18.9,15.3,34.2,34.2,34.2l63.3-0.2l0.7,285.2
		C351.6,468.7,343,477.3,332.5,477.3z M128.9,399.6v-82c6.9-1.1,16-1.7,25.5-1.7c15.9,0,26.1,2.8,34.2,8.9
		c8.7,6.4,14.1,16.7,14.1,31.5c0,16-5.8,27-13.9,33.8c-8.8,7.3-22.2,10.8-38.5,10.8C140.6,400.8,133.6,400.2,128.9,399.6z
		 M264.2,351v15.4h-30V400h-19v-83.5h51.1v15.5h-32.1V351H264.2z"/>
</g>
</svg>
