<?xml version="1.0" encoding="utf-8"?>
<!-- Generator: Adobe Illustrator 17.1.0, SVG Export Plug-In . SVG Version: 6.00 Build 0)  -->
<!DOCTYPE svg PUBLIC "-//W3C//DTD SVG 1.1//EN" "http://www.w3.org/Graphics/SVG/1.1/DTD/svg11.dtd" [
	<!ENTITY ns_extend "http://ns.adobe.com/Extensibility/1.0/">
	<!ENTITY ns_ai "http://ns.adobe.com/AdobeIllustrator/10.0/">
	<!ENTITY ns_graphs "http://ns.adobe.com/Graphs/1.0/">
	<!ENTITY ns_vars "http://ns.adobe.com/Variables/1.0/">
	<!ENTITY ns_imrep "http://ns.adobe.com/ImageReplacement/1.0/">
	<!ENTITY ns_sfw "http://ns.adobe.com/SaveForWeb/1.0/">
	<!ENTITY ns_custom "http://ns.adobe.com/GenericCustomNamespace/1.0/">
	<!ENTITY ns_adobe_xpath "http://ns.adobe.com/XPath/1.0/">
]>
<svg version="1.1" id="Слой_1" xmlns:x="&ns_extend;" xmlns:i="&ns_ai;" xmlns:graph="&ns_graphs;"
	 xmlns="http://www.w3.org/2000/svg" xmlns:xlink="http://www.w3.org/1999/xlink" x="0px" y="0px" viewBox="0 0 385 550"
	 enable-background="new 0 0 385 550" xml:space="preserve">
<metadata>
	<sfw  xmlns="&ns_sfw;">
		<slices></slices>
		<sliceSourceBounds  height="427.4" width="378.1" x="4.1" y="60.6" bottomLeftOrigin="true"></sliceSourceBounds>
	</sfw>
</metadata>
<linearGradient id="SVGID_1_" gradientUnits="userSpaceOnUse" x1="32.1108" y1="553.8495" x2="32.1108" y2="481.3934" gradientTransform="matrix(6.0156 0 0 -6.0156 0 3391.0938)">
	<stop  offset="0" style="stop-color:#1A6DFF"/>
	<stop  offset="1" style="stop-color:#C822FF"/>
</linearGradient>
<path fill="url(#SVGID_1_)" d="M341.1,103.2H217.8V86.5c0-7.7-3.6-14.8-9.7-19.5c-6.3-4.7-14.2-6.2-21.8-4L33.8,107
	C16.3,112,4.1,128,4.1,146v259.5c0,18,12.2,34,29.6,39l152.5,43.9c2.3,0.7,4.6,1,6.9,1c5.3,0,10.5-1.7,14.8-5
	c6.2-4.7,9.7-11.8,9.7-19.5v-16.6h123.3c22.7,0,41.1-18.4,41.1-41.1v-263C382.2,121.6,363.8,103.2,341.1,103.2z M201.4,465
	c0,2.5-1.2,4.8-3.2,6.3c-2.1,1.6-4.8,2.1-7.4,1.3L38.3,428.7c-10.4-3-17.7-12.5-17.7-23.2V146c0-10.7,7.3-20.2,17.7-23.2l152.5-43.9
	c0.8-0.2,1.6-0.3,2.4-0.3c1.8,0,3.5,0.6,5,1.7c2,1.5,3.2,3.8,3.2,6.3v16.6v345.2V465z M365.8,407.2c0,13.6-11.1,24.7-24.7,24.7
	H217.8v-49.3h32.9v-16.4h-32.9v-32.9h32.9v-16.4h-32.9V284h32.9v-16.4h-32.9v-32.9h32.9v-16.4h-32.9v-32.9h32.9v-16.4h-32.9v-49.3
	h123.3c13.6,0,24.7,11.1,24.7,24.7V407.2z"/>
<linearGradient id="SVGID_2_" gradientUnits="userSpaceOnUse" x1="51.2376" y1="553.8514" x2="51.2376" y2="481.3914" gradientTransform="matrix(6.0156 0 0 -6.0156 0 3391.0938)">
	<stop  offset="0" style="stop-color:#1A6DFF"/>
	<stop  offset="1" style="stop-color:#C822FF"/>
</linearGradient>
<rect x="283.6" y="168.9" fill="url(#SVGID_2_)" width="49.3" height="16.4"/>
<linearGradient id="SVGID_3_" gradientUnits="userSpaceOnUse" x1="51.2376" y1="553.8514" x2="51.2376" y2="481.3914" gradientTransform="matrix(6.0156 0 0 -6.0156 0 3391.0938)">
	<stop  offset="0" style="stop-color:#1A6DFF"/>
	<stop  offset="1" style="stop-color:#C822FF"/>
</linearGradient>
<rect x="283.6" y="218.2" fill="url(#SVGID_3_)" width="49.3" height="16.4"/>
<linearGradient id="SVGID_4_" gradientUnits="userSpaceOnUse" x1="51.2376" y1="553.8514" x2="51.2376" y2="481.3914" gradientTransform="matrix(6.0156 0 0 -6.0156 0 3391.0938)">
	<stop  offset="0" style="stop-color:#1A6DFF"/>
	<stop  offset="1" style="stop-color:#C822FF"/>
</linearGradient>
<rect x="283.6" y="267.5" fill="url(#SVGID_4_)" width="49.3" height="16.4"/>
<linearGradient id="SVGID_5_" gradientUnits="userSpaceOnUse" x1="51.2376" y1="553.8514" x2="51.2376" y2="481.3914" gradientTransform="matrix(6.0156 0 0 -6.0156 0 3391.0938)">
	<stop  offset="0" style="stop-color:#1A6DFF"/>
	<stop  offset="1" style="stop-color:#C822FF"/>
</linearGradient>
<rect x="283.6" y="316.8" fill="url(#SVGID_5_)" width="49.3" height="16.4"/>
<linearGradient id="SVGID_6_" gradientUnits="userSpaceOnUse" x1="51.2376" y1="553.8514" x2="51.2376" y2="481.3914" gradientTransform="matrix(6.0156 0 0 -6.0156 0 3391.0938)">
	<stop  offset="0" style="stop-color:#1A6DFF"/>
	<stop  offset="1" style="stop-color:#C822FF"/>
</linearGradient>
<rect x="283.6" y="366.2" fill="url(#SVGID_6_)" width="49.3" height="16.4"/>
<linearGradient id="SVGID_7_" gradientUnits="userSpaceOnUse" x1="22.0005" y1="528" x2="22.0005" y2="508.6552" gradientTransform="matrix(6.0156 0 0 -6.0156 0 3391.0938)">
	<stop  offset="0" style="stop-color:#6DC7FF"/>
	<stop  offset="1" style="stop-color:#E6ABFF"/>
</linearGradient>
<polygon display="none" fill="url(#SVGID_7_)" points="144.1,275 175.3,329.1 151.8,329.1 132.3,295.3 112.9,329.1 89.4,329.1 
	120.6,275 89.4,220.9 112.9,220.9 132.3,254.7 151.8,220.9 175.3,220.9 "/>
<g>
	<linearGradient id="SVGID_8_" gradientUnits="userSpaceOnUse" x1="113.462" y1="203.1167" x2="113.462" y2="349.7193">
		<stop  offset="0" style="stop-color:#6DC7FF"/>
		<stop  offset="1" style="stop-color:#E6ABFF"/>
	</linearGradient>
	<path fill="url(#SVGID_8_)" d="M91.5,295.3v54.5H56.6V203.1h57.8c12.9,0,22.8,1.4,29.6,4.1c6.8,2.8,12.9,7.7,18.3,14.8
		c5.4,7.1,8.1,15.8,8.1,26.1c0,7.2-1.4,14.3-4.3,21.2c-2.9,6.9-6.9,12.3-12.1,16.2c-5.2,3.9-10.3,6.6-15.2,7.8
		c-4.9,1.3-12.6,1.9-23,1.9H91.5z M90.3,268.6h22.3c8.5,0,14.5-2,17.9-5.9c3.4-3.9,5.2-8.4,5.2-13.5c0-5.9-1.9-10.7-5.7-14.2
		c-3.8-3.5-9.6-5.3-17.5-5.3H90.3V268.6z"/>
</g>
</svg>
