<?xml version="1.0" encoding="iso-8859-1"?>
<!-- Generator: Adobe Illustrator 20.1.0, SVG Export Plug-In . SVG Version: 6.00 Build 0)  -->
<svg xmlns="http://www.w3.org/2000/svg" xmlns:xlink="http://www.w3.org/1999/xlink" version="1.1" id="&#1057;&#1083;&#1086;&#1081;_1" x="0px" y="0px" viewBox="0 0 64 64" style="enable-background:new 0 0 64 64;" xml:space="preserve">
<linearGradient id="SVGID_1__48341" gradientUnits="userSpaceOnUse" x1="32" y1="10.2501" x2="32" y2="54.7501" spreadMethod="reflect">
	<stop offset="0" style="stop-color:#1A6DFF"/>
	<stop offset="1" style="stop-color:#C822FF"/>
</linearGradient>
<path style="fill:url(#SVGID_1__48341);" d="M56.471,11.379c-0.911-0.518-1.994-0.506-2.894,0.031L42,18.314v-4.263  c0-1.112-0.586-2.136-1.529-2.672c-0.911-0.518-1.994-0.506-2.894,0.031L7.475,29.36C6.552,29.911,6,30.898,6,32  c0,1.103,0.552,2.089,1.476,2.641L37.577,52.59c0.459,0.273,0.966,0.411,1.473,0.411c0.487,0,0.975-0.127,1.421-0.38  C41.414,52.085,42,51.062,42,49.949v-4.263l11.577,6.903c0.459,0.273,0.966,0.411,1.473,0.411c0.487,0,0.975-0.127,1.421-0.38  C57.414,52.085,58,51.062,58,49.949V14.051C58,12.939,57.414,11.915,56.471,11.379z M40,49.949c0,0.399-0.193,0.748-0.518,0.933  c-0.165,0.095-0.501,0.219-0.882-0.011L8.5,32.923C8.187,32.736,8,32.391,8,32c0-0.391,0.187-0.736,0.499-0.922l30.102-17.949  c0.381-0.227,0.717-0.104,0.882-0.011C39.807,13.303,40,13.651,40,14.051v5.456L23.475,29.36C22.552,29.911,22,30.898,22,32  c0,1.103,0.552,2.089,1.476,2.641L40,44.494V49.949z M56,49.949c0,0.399-0.193,0.748-0.518,0.933  c-0.165,0.095-0.5,0.219-0.882-0.011L24.5,32.923C24.187,32.736,24,32.391,24,32c0-0.391,0.187-0.736,0.499-0.922l30.102-17.949  c0.16-0.096,0.313-0.13,0.447-0.13c0.186,0,0.339,0.064,0.435,0.119C55.807,13.303,56,13.651,56,14.051V49.949z"/>
<linearGradient id="SVGID_2__48341" gradientUnits="userSpaceOnUse" x1="41.9493" y1="19.6667" x2="41.9493" y2="45.3356" spreadMethod="reflect">
	<stop offset="0" style="stop-color:#6DC7FF"/>
	<stop offset="1" style="stop-color:#E6ABFF"/>
</linearGradient>
<path style="fill:url(#SVGID_2__48341);" d="M52,20.793v22.415c0,0.782-0.859,1.261-1.524,0.849L32.372,32.849  c-0.631-0.39-0.631-1.308,0-1.698l18.104-11.207C51.141,19.532,52,20.01,52,20.793z"/>
</svg>
