<?xml version="1.0" encoding="utf-8"?>
<!-- Generator: Adobe Illustrator 17.1.0, SVG Export Plug-In . SVG Version: 6.00 Build 0)  -->
<!DOCTYPE svg PUBLIC "-//W3C//DTD SVG 1.1//EN" "http://www.w3.org/Graphics/SVG/1.1/DTD/svg11.dtd" [
	<!ENTITY ns_extend "http://ns.adobe.com/Extensibility/1.0/">
	<!ENTITY ns_ai "http://ns.adobe.com/AdobeIllustrator/10.0/">
	<!ENTITY ns_graphs "http://ns.adobe.com/Graphs/1.0/">
	<!ENTITY ns_vars "http://ns.adobe.com/Variables/1.0/">
	<!ENTITY ns_imrep "http://ns.adobe.com/ImageReplacement/1.0/">
	<!ENTITY ns_sfw "http://ns.adobe.com/SaveForWeb/1.0/">
	<!ENTITY ns_custom "http://ns.adobe.com/GenericCustomNamespace/1.0/">
	<!ENTITY ns_adobe_xpath "http://ns.adobe.com/XPath/1.0/">
]>
<svg version="1.1" id="Слой_1" xmlns:x="&ns_extend;" xmlns:i="&ns_ai;" xmlns:graph="&ns_graphs;"
	 xmlns="http://www.w3.org/2000/svg" xmlns:xlink="http://www.w3.org/1999/xlink" x="0px" y="0px" viewBox="0 0 385 550"
	 enable-background="new 0 0 385 550" xml:space="preserve">
<metadata>
	<sfw  xmlns="&ns_sfw;">
		<slices></slices>
		<sliceSourceBounds  height="428.8" width="379.3" x="3.7" y="59.5" bottomLeftOrigin="true"></sliceSourceBounds>
	</sfw>
</metadata>
<linearGradient id="SVGID_1_" gradientUnits="userSpaceOnUse" x1="32.1389" y1="-3.9336" x2="32.1389" y2="68.7665" gradientTransform="matrix(6.0156 0 0 6.0156 0 82.5136)">
	<stop  offset="0" style="stop-color:#1A6DFF"/>
	<stop  offset="1" style="stop-color:#C822FF"/>
</linearGradient>
<path fill="url(#SVGID_1_)" d="M341.9,102.8H218.2V86.1c0-7.7-3.6-14.8-9.7-19.5c-6.3-4.8-14.3-6.2-21.8-4l-153.3,44
	c-17.5,5.1-29.7,21.1-29.7,39.2v260.5c0,18.1,12.2,34.1,29.7,39.2l153,44c2.3,0.7,4.7,1,7,1c5.3,0,10.6-1.8,14.9-5.1
	c6.2-4.7,9.7-11.8,9.7-19.6v-16.7h123.6c22.8,0,41.3-18.5,41.3-41.3V144.1C383.1,121.3,364.6,102.8,341.9,102.8z M201.6,465.8
	c0,2.5-1.2,4.8-3.2,6.3c-2.2,1.6-4.8,2.1-7.4,1.4L38,429.5c-10.4-3-17.8-12.6-17.8-23.3V145.7c0-10.7,7.3-20.3,17.8-23.3l153.1-44
	c0.8-0.3,1.6-0.3,2.3-0.3c1.8,0,3.6,0.5,5.1,1.6c2.1,1.5,3.2,3.8,3.2,6.3v16.7v346.3L201.6,465.8L201.6,465.8z M366.5,407.8
	c0,13.6-11.1,24.8-24.8,24.8H218.1v-49.5h33v-16.4h-33v-33h33v-16.4h-33v-33h33v-16.4h-33v-33h33v-16.4h-33v-33h33v-16.4h-33v-49.5
	h123.6c13.6,0,24.8,11.1,24.8,24.8V407.8z"/>
<linearGradient id="SVGID_2_" gradientUnits="userSpaceOnUse" x1="51.3486" y1="-3.9354" x2="51.3486" y2="68.7684" gradientTransform="matrix(6.0156 0 0 6.0156 0 82.5136)">
	<stop  offset="0" style="stop-color:#1A6DFF"/>
	<stop  offset="1" style="stop-color:#C822FF"/>
</linearGradient>
<rect x="284.1" y="168.8" fill="url(#SVGID_2_)" width="49.5" height="16.4"/>
<linearGradient id="SVGID_3_" gradientUnits="userSpaceOnUse" x1="51.3486" y1="-3.9354" x2="51.3486" y2="68.7684" gradientTransform="matrix(6.0156 0 0 6.0156 0 82.5136)">
	<stop  offset="0" style="stop-color:#1A6DFF"/>
	<stop  offset="1" style="stop-color:#C822FF"/>
</linearGradient>
<rect x="284.1" y="218.3" fill="url(#SVGID_3_)" width="49.5" height="16.4"/>
<linearGradient id="SVGID_4_" gradientUnits="userSpaceOnUse" x1="51.3486" y1="-3.9354" x2="51.3486" y2="68.7684" gradientTransform="matrix(6.0156 0 0 6.0156 0 82.5136)">
	<stop  offset="0" style="stop-color:#1A6DFF"/>
	<stop  offset="1" style="stop-color:#C822FF"/>
</linearGradient>
<rect x="284.1" y="267.7" fill="url(#SVGID_4_)" width="49.5" height="16.4"/>
<linearGradient id="SVGID_5_" gradientUnits="userSpaceOnUse" x1="51.3486" y1="-3.9354" x2="51.3486" y2="68.7684" gradientTransform="matrix(6.0156 0 0 6.0156 0 82.5136)">
	<stop  offset="0" style="stop-color:#1A6DFF"/>
	<stop  offset="1" style="stop-color:#C822FF"/>
</linearGradient>
<rect x="284.1" y="317.2" fill="url(#SVGID_5_)" width="49.5" height="16.4"/>
<linearGradient id="SVGID_6_" gradientUnits="userSpaceOnUse" x1="51.3486" y1="-3.9354" x2="51.3486" y2="68.7684" gradientTransform="matrix(6.0156 0 0 6.0156 0 82.5136)">
	<stop  offset="0" style="stop-color:#1A6DFF"/>
	<stop  offset="1" style="stop-color:#C822FF"/>
</linearGradient>
<rect x="284.1" y="366.7" fill="url(#SVGID_6_)" width="49.5" height="16.4"/>
<linearGradient id="SVGID_7_" gradientUnits="userSpaceOnUse" x1="22.0011" y1="22" x2="22.0011" y2="41.3448" gradientTransform="matrix(6.0156 0 0 6.0156 0 82.5136)">
	<stop  offset="0" style="stop-color:#6DC7FF"/>
	<stop  offset="1" style="stop-color:#E6ABFF"/>
</linearGradient>
<polygon display="none" fill="url(#SVGID_7_)" points="144.1,275 175.3,329.1 151.8,329.1 132.3,295.3 112.9,329.1 89.4,329.1 
	120.6,275 89.4,220.9 112.9,220.9 132.3,254.7 151.8,220.9 175.3,220.9 "/>
<g>
	
		<linearGradient id="SVGID_8_" gradientUnits="userSpaceOnUse" x1="111.635" y1="324.8952" x2="111.635" y2="221.0564" gradientTransform="matrix(1 0 0 -1 0 550)">
		<stop  offset="0" style="stop-color:#6DC7FF"/>
		<stop  offset="1" style="stop-color:#E6ABFF"/>
	</linearGradient>
	<path fill="url(#SVGID_8_)" d="M178.6,225.1l-26,103.9h-23.9l-17.1-68.7L95.1,329H71.4L44.7,225.1h24.7l14.3,63.3
		c0,0.3,0.3,1.4,0.8,3.3c0.1,0.7,0.5,1.8,0.8,3.2l17-69.9h22.5l17.4,69.9c0.4-1.4,0.8-3.6,1.5-6.6l14.7-63.3h20.3V225.1z"/>
</g>
</svg>
