<?xml version="1.0" encoding="iso-8859-1"?>
<!-- Generator: Adobe Illustrator 20.1.0, SVG Export Plug-In . SVG Version: 6.00 Build 0)  -->
<svg xmlns="http://www.w3.org/2000/svg" xmlns:xlink="http://www.w3.org/1999/xlink" version="1.1" id="&#1057;&#1083;&#1086;&#1081;_1" x="0px" y="0px" viewBox="0 0 64 64" style="enable-background:new 0 0 64 64;" xml:space="preserve">
<linearGradient id="SVGID_1__43607" gradientUnits="userSpaceOnUse" x1="32" y1="9.8333" x2="32" y2="54.3346" spreadMethod="reflect">
	<stop offset="0" style="stop-color:#1A6DFF"/>
	<stop offset="1" style="stop-color:#C822FF"/>
</linearGradient>
<path style="fill:url(#SVGID_1__43607);" d="M55,43c1.654,0,3-1.346,3-3V14c0-1.654-1.346-3-3-3H23c-1.654,0-3,1.346-3,3v3H9  c-1.654,0-3,1.346-3,3v30c0,1.654,1.346,3,3,3h14h2h30c1.654,0,3-1.346,3-3v-2c0-1.654-1.346-3-3-3h-5v-2H55z M22,14  c0-0.552,0.448-1,1-1h32c0.552,0,1,0.448,1,1v26c0,0.552-0.448,1-1,1h-5H28h-5c-0.552,0-1-0.448-1-1V14z M20,31h-8v-6h8V31z M8,50  V20c0-0.552,0.448-1,1-1h11v4h-8c-1.103,0-2,0.897-2,2v6c0,1.103,0.897,2,2,2h8v7c0,1.654,1.346,3,3,3h5v2h-5  c-1.302,0-2.402,0.838-2.816,2H12c-1.103,0-2,0.897-2,2v2H9C8.448,51,8,50.552,8,50z M20.184,51H12v-2h8v1  C20,50.353,20.072,50.686,20.184,51z M55,47c0.552,0,1,0.448,1,1v2c0,0.552-0.448,1-1,1h-5c0-1.103-0.897-2-2-2H30  c-1.103,0-2,0.897-2,2h-3h-2c-0.552,0-1-0.448-1-1v-2c0-0.552,0.448-1,1-1h5h22H55z M48,45H30v-2h18V45z"/>
<linearGradient id="SVGID_2__43607" gradientUnits="userSpaceOnUse" x1="39" y1="9.8333" x2="39" y2="54.3346" spreadMethod="reflect">
	<stop offset="0" style="stop-color:#1A6DFF"/>
	<stop offset="1" style="stop-color:#C822FF"/>
</linearGradient>
<path style="fill:url(#SVGID_2__43607);" d="M26,39h26c1.103,0,2-0.897,2-2V17c0-1.103-0.897-2-2-2H26c-1.103,0-2,0.897-2,2v20  C24,38.103,24.897,39,26,39z M26,17h26v20H26V17z"/>
<linearGradient id="SVGID_3__43607" gradientUnits="userSpaceOnUse" x1="14" y1="9.8333" x2="14" y2="54.3346" spreadMethod="reflect">
	<stop offset="0" style="stop-color:#1A6DFF"/>
	<stop offset="1" style="stop-color:#C822FF"/>
</linearGradient>
<rect x="10" y="35" style="fill:url(#SVGID_3__43607);" width="8" height="2"/>
<linearGradient id="SVGID_4__43607" gradientUnits="userSpaceOnUse" x1="14" y1="9.8333" x2="14" y2="54.3346" spreadMethod="reflect">
	<stop offset="0" style="stop-color:#1A6DFF"/>
	<stop offset="1" style="stop-color:#C822FF"/>
</linearGradient>
<rect x="10" y="39" style="fill:url(#SVGID_4__43607);" width="8" height="2"/>
<linearGradient id="SVGID_5__43607" gradientUnits="userSpaceOnUse" x1="39" y1="22.8333" x2="39" y2="31.0017" spreadMethod="reflect">
	<stop offset="0" style="stop-color:#6DC7FF"/>
	<stop offset="1" style="stop-color:#E6ABFF"/>
</linearGradient>
<path style="fill:url(#SVGID_5__43607);" d="M43,30c0,0.552-0.448,1-1,1h-6c-0.552,0-1-0.448-1-1v-6c0-0.552,0.448-1,1-1h6  c0.552,0,1,0.448,1,1V30z"/>
</svg>
