<?xml version="1.0" encoding="iso-8859-1"?>
<!-- Generator: Adobe Illustrator 20.1.0, SVG Export Plug-In . SVG Version: 6.00 Build 0)  -->
<svg xmlns="http://www.w3.org/2000/svg" xmlns:xlink="http://www.w3.org/1999/xlink" version="1.1" id="&#1057;&#1083;&#1086;&#1081;_1" x="0px" y="0px" viewBox="0 0 64 64" style="enable-background:new 0 0 64 64;" xml:space="preserve">
<linearGradient id="SVGID_1__43974" gradientUnits="userSpaceOnUse" x1="32" y1="6.5" x2="32" y2="58.7596" spreadMethod="reflect">
	<stop offset="0" style="stop-color:#1A6DFF"/>
	<stop offset="1" style="stop-color:#C822FF"/>
</linearGradient>
<path style="fill:url(#SVGID_1__43974);" d="M46.021,58h-4.063c-0.525,0-1.02-0.202-1.393-0.569L16.871,34.074  C16.31,33.521,16,32.784,16,32s0.31-1.521,0.87-2.074L40.565,6.569C40.938,6.202,41.432,6,41.958,6h4.063  c0.808,0,1.526,0.479,1.831,1.223c0.303,0.735,0.131,1.573-0.438,2.134L25.103,31.35c-0.177,0.175-0.274,0.405-0.274,0.65  s0.098,0.476,0.274,0.65l22.312,21.993c0.568,0.561,0.74,1.398,0.438,2.134C47.547,57.521,46.829,58,46.021,58z M41.962,8  L18.275,31.35C18.098,31.524,18,31.755,18,32s0.098,0.476,0.274,0.65l23.693,23.355L46.021,56L23.699,34.074  c-0.561-0.553-0.87-1.29-0.87-2.074s0.31-1.521,0.87-2.074L46.01,7.933L41.962,8z"/>
<linearGradient id="SVGID_2__43974" gradientUnits="userSpaceOnUse" x1="39.2077" y1="19.1667" x2="39.2077" y2="45.8521" spreadMethod="reflect">
	<stop offset="0" style="stop-color:#6DC7FF"/>
	<stop offset="1" style="stop-color:#E6ABFF"/>
</linearGradient>
<path style="fill:url(#SVGID_2__43974);" d="M44.297,19.703L32.709,31.292c-0.391,0.391-0.391,1.025,0,1.417l11.588,11.588  C44.925,44.925,46,44.48,46,43.591V20.409C46,19.52,44.925,19.075,44.297,19.703z"/>
</svg>
