<?xml version="1.0" encoding="utf-8"?>
<!-- Generator: Adobe Illustrator 17.1.0, SVG Export Plug-In . SVG Version: 6.00 Build 0)  -->
<!DOCTYPE svg PUBLIC "-//W3C//DTD SVG 1.1//EN" "http://www.w3.org/Graphics/SVG/1.1/DTD/svg11.dtd" [
	<!ENTITY ns_extend "http://ns.adobe.com/Extensibility/1.0/">
	<!ENTITY ns_ai "http://ns.adobe.com/AdobeIllustrator/10.0/">
	<!ENTITY ns_graphs "http://ns.adobe.com/Graphs/1.0/">
	<!ENTITY ns_vars "http://ns.adobe.com/Variables/1.0/">
	<!ENTITY ns_imrep "http://ns.adobe.com/ImageReplacement/1.0/">
	<!ENTITY ns_sfw "http://ns.adobe.com/SaveForWeb/1.0/">
	<!ENTITY ns_custom "http://ns.adobe.com/GenericCustomNamespace/1.0/">
	<!ENTITY ns_adobe_xpath "http://ns.adobe.com/XPath/1.0/">
]>
<svg version="1.1" id="Layer_1" xmlns:x="&ns_extend;" xmlns:i="&ns_ai;" xmlns:graph="&ns_graphs;"
	 xmlns="http://www.w3.org/2000/svg" xmlns:xlink="http://www.w3.org/1999/xlink" x="0px" y="0px" viewBox="0 0 528 528"
	 enable-background="new 0 0 528 528" xml:space="preserve">
<metadata>
	<sfw  xmlns="&ns_sfw;">
		<slices></slices>
		<sliceSourceBounds  height="396" width="396" x="-5" y="78" bottomLeftOrigin="true"></sliceSourceBounds>
	</sfw>
</metadata>
<linearGradient id="SVGID_1_" gradientUnits="userSpaceOnUse" x1="227.8485" y1="184.591" x2="227.8485" y2="341">
	<stop  offset="0" style="stop-color:#6DC7FF"/>
	<stop  offset="1" style="stop-color:#E6ABFF"/>
</linearGradient>
<path fill="url(#SVGID_1_)" d="M265.6,329.4c8.3-7.7,12.5-19.2,12.5-34.4c0-8.9-1.9-16.3-5.7-22.4c-3.8-6.1-9.2-10.1-16.2-12.1
	c6.1-2.7,10.9-6.9,14.4-12.6c3.5-5.7,5.3-12.6,5.3-20.5c0-14-4.2-24.7-12.7-32s-20.9-10.9-37.2-10.9h-48.3V341h51.8
	C245.2,341,257.3,337.1,265.6,329.4z M209.1,210.9h16.8c6.4,0,11.1,1.5,14,4.6c2.9,3.1,4.3,8.2,4.3,15.3c0,12.8-6.2,19.2-18.6,19.2
	h-16.4V210.9z M209.2,273h22.2c10.2,0.4,15.3,7.6,15.3,21.6c0,6.4-1.5,11.4-4.4,14.9s-7.2,5.3-12.9,5.3h-20.2V273z"/>
<linearGradient id="SVGID_2_" gradientUnits="userSpaceOnUse" x1="328.284" y1="222.629" x2="328.284" y2="341">
	<stop  offset="0" style="stop-color:#6DC7FF"/>
	<stop  offset="1" style="stop-color:#E6ABFF"/>
</linearGradient>
<path fill="url(#SVGID_2_)" d="M329.9,264.2c2.9-7.3,8.5-11,16.9-11l10.1,0.9l0.3-30.1c-2.2-0.9-4.9-1.4-8.4-1.4
	c-8.4,0-15.1,4.9-19.9,14.7l-0.9-12.6h-28.7V341h30.5V264.2z"/>
<linearGradient id="SVGID_3_" gradientUnits="userSpaceOnUse" x1="264" y1="66" x2="264" y2="462">
	<stop  offset="0" style="stop-color:#1A6DFF"/>
	<stop  offset="1" style="stop-color:#C822FF"/>
</linearGradient>
<path fill="url(#SVGID_3_)" d="M418,66H110c-24.3,0-44,19.7-44,44v308c0,24.3,19.7,44,44,44h308c24.3,0,44-19.7,44-44V110
	C462,85.7,442.3,66,418,66z M429,429H99V99h330V429z"/>
</svg>
