<?xml version="1.0" encoding="iso-8859-1"?>
<!-- Generator: Adobe Illustrator 20.1.0, SVG Export Plug-In . SVG Version: 6.00 Build 0)  -->
<svg xmlns="http://www.w3.org/2000/svg" xmlns:xlink="http://www.w3.org/1999/xlink" version="1.1" id="&#1057;&#1083;&#1086;&#1081;_1" x="0px" y="0px" viewBox="0 0 64 64" style="enable-background:new 0 0 64 64;" xml:space="preserve">
<linearGradient id="SVGID_1__44005" gradientUnits="userSpaceOnUse" x1="14.2961" y1="42.8333" x2="14.2961" y2="53.0218" spreadMethod="reflect">
	<stop offset="0" style="stop-color:#6DC7FF"/>
	<stop offset="1" style="stop-color:#E6ABFF"/>
</linearGradient>
<path style="fill:url(#SVGID_1__44005);" d="M11.702,43.702l6.596,6.596C18.926,50.926,18.481,52,17.593,52H12c-1.105,0-2-0.895-2-2  v-5.593C10,43.519,11.074,43.074,11.702,43.702z"/>
<linearGradient id="SVGID_2__44005" gradientUnits="userSpaceOnUse" x1="32" y1="8" x2="32" y2="55.938" spreadMethod="reflect">
	<stop offset="0" style="stop-color:#1A6DFF"/>
	<stop offset="1" style="stop-color:#C822FF"/>
</linearGradient>
<path style="fill:url(#SVGID_2__44005);" d="M55,20h-1v-6c0-1.654-1.346-3-3-3v-1c0-1.103-0.897-2-2-2H15c-1.103,0-2,0.897-2,2v1  c-1.654,0-3,1.346-3,3v6H9c-1.654,0-3,1.346-3,3v6v1v21c0,2.757,2.243,5,5,5h42c2.757,0,5-2.243,5-5V31v-2v-6  C58,21.346,56.654,20,55,20z M55,22c0.552,0,1,0.448,1,1v2.026c-0.584-0.442-1.257-0.773-2-0.925V22H55z M15,10h34v1H15V10z M13,13  h38c0.552,0,1,0.448,1,1v10h-9.929c-1.007,0-1.94,0.5-2.497,1.337l-2.813,4.218C36.575,29.833,36.265,30,35.929,30h-7.857  c-0.336,0-0.646-0.167-0.833-0.446l-2.813-4.216C23.869,24.5,22.936,24,21.929,24H12V14C12,13.448,12.448,13,13,13z M9,22h1v2.101  c-0.743,0.152-1.416,0.482-2,0.925V23C8,22.448,8.448,22,9,22z M56,51c0,1.654-1.346,3-3,3H11c-1.654,0-3-1.346-3-3V30v-1  c0-1.654,1.346-3,3-3h10.929c0.336,0,0.646,0.167,0.833,0.446l2.813,4.216C26.131,31.5,27.064,32,28.071,32h7.857  c1.007,0,1.94-0.5,2.497-1.337l2.813-4.218C41.425,26.167,41.735,26,42.071,26H53c1.654,0,3,1.346,3,3v2V51z"/>
<linearGradient id="SVGID_3__44005" gradientUnits="userSpaceOnUse" x1="33" y1="8" x2="33" y2="55.938" spreadMethod="reflect">
	<stop offset="0" style="stop-color:#1A6DFF"/>
	<stop offset="1" style="stop-color:#C822FF"/>
</linearGradient>
<rect x="21" y="17" style="fill:url(#SVGID_3__44005);" width="24" height="2"/>
<linearGradient id="SVGID_4__44005" gradientUnits="userSpaceOnUse" x1="49" y1="8" x2="49" y2="55.938" spreadMethod="reflect">
	<stop offset="0" style="stop-color:#1A6DFF"/>
	<stop offset="1" style="stop-color:#C822FF"/>
</linearGradient>
<rect x="44" y="50" style="fill:url(#SVGID_4__44005);" width="10" height="2"/>
<linearGradient id="SVGID_5__44005" gradientUnits="userSpaceOnUse" x1="49" y1="8" x2="49" y2="55.938" spreadMethod="reflect">
	<stop offset="0" style="stop-color:#1A6DFF"/>
	<stop offset="1" style="stop-color:#C822FF"/>
</linearGradient>
<rect x="44" y="46" style="fill:url(#SVGID_5__44005);" width="10" height="2"/>
<linearGradient id="SVGID_6__44005" gradientUnits="userSpaceOnUse" x1="32" y1="8" x2="32" y2="55.938" spreadMethod="reflect">
	<stop offset="0" style="stop-color:#1A6DFF"/>
	<stop offset="1" style="stop-color:#C822FF"/>
</linearGradient>
<rect x="27" y="21" style="fill:url(#SVGID_6__44005);" width="10" height="2"/>
<linearGradient id="SVGID_7__44005" gradientUnits="userSpaceOnUse" x1="32" y1="8" x2="32" y2="55.938" spreadMethod="reflect">
	<stop offset="0" style="stop-color:#1A6DFF"/>
	<stop offset="1" style="stop-color:#C822FF"/>
</linearGradient>
<rect x="29" y="25" style="fill:url(#SVGID_7__44005);" width="6" height="2"/>
</svg>
