<?xml version="1.0" encoding="iso-8859-1"?>
<!-- Generator: Adobe Illustrator 20.1.0, SVG Export Plug-In . SVG Version: 6.00 Build 0)  -->
<svg xmlns="http://www.w3.org/2000/svg" xmlns:xlink="http://www.w3.org/1999/xlink" version="1.1" id="&#1057;&#1083;&#1086;&#1081;_1" x="0px" y="0px" viewBox="0 0 64 64" style="enable-background:new 0 0 64 64;" xml:space="preserve">
<linearGradient id="SVGID_1__44035" gradientUnits="userSpaceOnUse" x1="51" y1="20.5" x2="51" y2="31.0475" spreadMethod="reflect">
	<stop offset="0" style="stop-color:#6DC7FF"/>
	<stop offset="1" style="stop-color:#E6ABFF"/>
</linearGradient>
<circle style="fill:url(#SVGID_1__44035);" cx="51" cy="26" r="4"/>
<linearGradient id="SVGID_2__44035" gradientUnits="userSpaceOnUse" x1="32" y1="11.6667" x2="32" y2="53.3387" spreadMethod="reflect">
	<stop offset="0" style="stop-color:#1A6DFF"/>
	<stop offset="1" style="stop-color:#C822FF"/>
</linearGradient>
<path style="fill:url(#SVGID_2__44035);" d="M58,16.424V15c0-1.654-1.346-3-3-3H21c-1.654,0-3,1.346-3,3v1.424  c-1.763,0.774-3,2.531-3,4.576v7H6c-1.654,0-3,1.346-3,3v18c0,1.654,1.346,3,3,3h20h2h28c2.757,0,5-2.243,5-5V21  C61,18.955,59.763,17.198,58,16.424z M20,15c0-0.551,0.448-1,1-1h34c0.552,0,1,0.449,1,1v1H20V15z M17,21c0-1.654,1.346-3,3-3h36  c1.654,0,3,1.346,3,3v22.586l-8.965-8.965c-0.944-0.944-2.199-1.464-3.535-1.464s-2.591,0.52-3.535,1.464L38,39.586l-7-7V31  c0-1.654-1.346-3-3-3H17V21z M31,49V35.414L45.586,50h-14.77C30.928,49.686,31,49.352,31,49z M5,40.051  c5.268,0.478,9.472,4.681,9.949,9.949h-2.008C12.478,45.836,9.165,42.522,5,42.059V40.051z M5,49v-4.92  c3.059,0.441,5.479,2.861,5.92,5.92H6C5.448,50,5,49.551,5,49z M26,50h-9.051C16.461,43.63,11.37,38.539,5,38.051V31  c0-0.551,0.448-1,1-1h22c0.552,0,1,0.449,1,1v18c0,0.551-0.448,1-1,1H26z M56,50h-7.586l-9-9l4.965-4.965  c1.133-1.133,3.109-1.133,4.242,0L59,46.414V47C59,48.654,57.654,50,56,50z"/>
<linearGradient id="SVGID_3__44035" gradientUnits="userSpaceOnUse" x1="22" y1="11.6667" x2="22" y2="53.3387" spreadMethod="reflect">
	<stop offset="0" style="stop-color:#1A6DFF"/>
	<stop offset="1" style="stop-color:#C822FF"/>
</linearGradient>
<rect x="19" y="34" style="fill:url(#SVGID_3__44035);" width="6" height="2"/>
<linearGradient id="SVGID_4__44035" gradientUnits="userSpaceOnUse" x1="18" y1="11.6667" x2="18" y2="53.3387" spreadMethod="reflect">
	<stop offset="0" style="stop-color:#1A6DFF"/>
	<stop offset="1" style="stop-color:#C822FF"/>
</linearGradient>
<rect x="15" y="38" style="fill:url(#SVGID_4__44035);" width="6" height="2"/>
<linearGradient id="SVGID_5__44035" gradientUnits="userSpaceOnUse" x1="22" y1="11.6667" x2="22" y2="53.3387" spreadMethod="reflect">
	<stop offset="0" style="stop-color:#1A6DFF"/>
	<stop offset="1" style="stop-color:#C822FF"/>
</linearGradient>
<rect x="19" y="42" style="fill:url(#SVGID_5__44035);" width="6" height="2"/>
</svg>
