<?xml version="1.0" encoding="iso-8859-1"?>
<!-- Generator: Adobe Illustrator 20.1.0, SVG Export Plug-In . SVG Version: 6.00 Build 0)  -->
<svg xmlns="http://www.w3.org/2000/svg" xmlns:xlink="http://www.w3.org/1999/xlink" version="1.1" id="&#1057;&#1083;&#1086;&#1081;_1" x="0px" y="0px" viewBox="0 0 64 64" style="enable-background:new 0 0 64 64;" xml:space="preserve">
<linearGradient id="SVGID_1__48321" gradientUnits="userSpaceOnUse" x1="9.5" y1="27.5833" x2="9.5" y2="36.5315" spreadMethod="reflect">
	<stop offset="0" style="stop-color:#6DC7FF"/>
	<stop offset="1" style="stop-color:#E6ABFF"/>
</linearGradient>
<path style="fill:url(#SVGID_1__48321);" d="M11,36H8.727C8.175,36,8,35.552,8,35v-6c0-0.552,0.175-1,0.727-1H11V36z"/>
<linearGradient id="SVGID_2__48321" gradientUnits="userSpaceOnUse" x1="34.5" y1="27.5833" x2="34.5" y2="36.5315" spreadMethod="reflect">
	<stop offset="0" style="stop-color:#6DC7FF"/>
	<stop offset="1" style="stop-color:#E6ABFF"/>
</linearGradient>
<path style="fill:url(#SVGID_2__48321);" d="M33,35c2,0,3-1.343,3-3c0-1.657-1-3-3-3V35z"/>
<linearGradient id="SVGID_3__48321" gradientUnits="userSpaceOnUse" x1="22.8638" y1="10.25" x2="22.8638" y2="53.6295" spreadMethod="reflect">
	<stop offset="0" style="stop-color:#1A6DFF"/>
	<stop offset="1" style="stop-color:#C822FF"/>
</linearGradient>
<path style="fill:url(#SVGID_3__48321);" d="M32.728,25h-2.747c0.557-7.436,1.909-11.629,2.69-12h0.019c0.552,0.25,1.9,3.017,2.614,10.101  l2.036-0.201C36.565,15.222,35,11.236,33,11.021V11h-0.715c-1.242,0-2.396,0.452-3.34,1.31L19.43,21h-5.703  C12.121,21,11,22.29,11,24v2H8.728C7.121,26,6,27.29,6,29v6c0,1.71,1.121,3,2.728,3H11v2c0,1.71,1.121,3,2.728,3h5.703l9.517,8.692  C29.889,52.548,31.043,53,32.285,53H33v-0.021c2-0.215,3.565-4.202,4.34-11.879l-2.013-0.201C34.613,47.983,33.243,50.75,32.784,51  h-0.018c-0.855-0.371-2.224-4.564-2.784-12h2.745c3.859,0,7-3.141,7-7S36.587,25,32.728,25z M8.728,36C8.123,36,8,35.461,8,35v-6  c0-0.461,0.123-1,0.728-1H11v8H8.728z M19,41h-5.272C13.123,41,13,40.461,13,40V24c0-0.461,0.123-1,0.728-1H15v9h2v-9h2V41z   M21,41.642V22.358l8.895-8.166C27.805,19.908,27.75,31.358,27.75,32s0.066,12.092,2.157,17.808L21,41.642z M32.728,37h-2.871  c-0.08-1.552-0.129-3.21-0.129-5s0.049-3.448,0.128-5h2.872c2.757,0,5,2.243,5,5S35.484,37,32.728,37z"/>
<linearGradient id="SVGID_4__48321" gradientUnits="userSpaceOnUse" x1="51.7271" y1="10.25" x2="51.7271" y2="53.6295" spreadMethod="reflect">
	<stop offset="0" style="stop-color:#1A6DFF"/>
	<stop offset="1" style="stop-color:#C822FF"/>
</linearGradient>
<polygon style="fill:url(#SVGID_4__48321);" points="58.091,27.05 56.677,25.636 51.727,30.586 46.777,25.636 45.363,27.05 50.313,32   45.363,36.95 46.777,38.364 51.727,33.414 56.677,38.364 58.091,36.95 53.141,32 "/>
</svg>
