<?xml version="1.0" encoding="iso-8859-1"?>
<!-- Generator: Adobe Illustrator 20.1.0, SVG Export Plug-In . SVG Version: 6.00 Build 0)  -->
<svg xmlns="http://www.w3.org/2000/svg" xmlns:xlink="http://www.w3.org/1999/xlink" version="1.1" id="&#1057;&#1083;&#1086;&#1081;_1" x="0px" y="0px" viewBox="0 0 64 64" style="enable-background:new 0 0 64 64;" xml:space="preserve">
<linearGradient id="SVGID_1__43608" gradientUnits="userSpaceOnUse" x1="32" y1="49.9688" x2="32" y2="55.3649" spreadMethod="reflect">
	<stop offset="0" style="stop-color:#6DC7FF"/>
	<stop offset="1" style="stop-color:#E6ABFF"/>
</linearGradient>
<rect x="8" y="51" style="fill:url(#SVGID_1__43608);" width="48" height="3"/>
<linearGradient id="SVGID_2__43608" gradientUnits="userSpaceOnUse" x1="32" y1="7.5" x2="32" y2="56.266" spreadMethod="reflect">
	<stop offset="0" style="stop-color:#1A6DFF"/>
	<stop offset="1" style="stop-color:#C822FF"/>
</linearGradient>
<path style="fill:url(#SVGID_2__43608);" d="M55,15h-9v-2c0-1.103-0.897-2-2-2h-6c0-1.654-1.346-3-3-3h-6c-1.654,0-3,1.346-3,3h-7  c-1.103,0-2,0.897-2,2v2H9c-1.654,0-3,1.346-3,3v29v2v4c0,1.654,1.346,3,3,3h46c1.654,0,3-1.346,3-3v-4v-2V18  C58,16.346,56.654,15,55,15z M44,13v2h-6v-2H44z M28,11c0-0.552,0.448-1,1-1h6c0.552,0,1,0.448,1,1v2v6h-8V11z M19,13h7v2h-7V13z   M55,54H9c-0.552,0-1-0.448-1-1v-1.184C8.314,51.928,8.648,52,9,52h46c0.352,0,0.686-0.072,1-0.184V53C56,53.552,55.552,54,55,54z   M56,49c0,0.552-0.448,1-1,1H9c-0.552,0-1-0.448-1-1v-2V18c0-0.552,0.448-1,1-1h17v4h12v-4h17c0.552,0,1,0.448,1,1v29V49z"/>
<linearGradient id="SVGID_3__43608" gradientUnits="userSpaceOnUse" x1="22" y1="7.5" x2="22" y2="56.266" spreadMethod="reflect">
	<stop offset="0" style="stop-color:#1A6DFF"/>
	<stop offset="1" style="stop-color:#C822FF"/>
</linearGradient>
<path style="fill:url(#SVGID_3__43608);" d="M27.397,35.604C27.779,34.815,28,33.934,28,33v-2c0-3.309-2.691-6-6-6s-6,2.691-6,6v2  c0,0.934,0.221,1.815,0.603,2.604C13.75,37.436,12,40.563,12,44v2h20v-2C32,40.563,30.25,37.436,27.397,35.604z M18,31  c0-2.206,1.794-4,4-4s4,1.794,4,4v2c0,2.206-1.794,4-4,4s-4-1.794-4-4V31z M14,44c0-2.779,1.431-5.303,3.757-6.762  C18.844,38.326,20.344,39,22,39s3.157-0.674,4.244-1.762C28.569,38.696,30,41.222,30,44H14z"/>
<linearGradient id="SVGID_4__43608" gradientUnits="userSpaceOnUse" x1="45" y1="7.5" x2="45" y2="56.266" spreadMethod="reflect">
	<stop offset="0" style="stop-color:#1A6DFF"/>
	<stop offset="1" style="stop-color:#C822FF"/>
</linearGradient>
<rect x="38" y="25" style="fill:url(#SVGID_4__43608);" width="14" height="2"/>
<linearGradient id="SVGID_5__43608" gradientUnits="userSpaceOnUse" x1="45" y1="7.5" x2="45" y2="56.266" spreadMethod="reflect">
	<stop offset="0" style="stop-color:#1A6DFF"/>
	<stop offset="1" style="stop-color:#C822FF"/>
</linearGradient>
<rect x="38" y="29" style="fill:url(#SVGID_5__43608);" width="14" height="2"/>
<linearGradient id="SVGID_6__43608" gradientUnits="userSpaceOnUse" x1="44" y1="7.5" x2="44" y2="56.266" spreadMethod="reflect">
	<stop offset="0" style="stop-color:#1A6DFF"/>
	<stop offset="1" style="stop-color:#C822FF"/>
</linearGradient>
<rect x="38" y="33" style="fill:url(#SVGID_6__43608);" width="12" height="2"/>
<linearGradient id="SVGID_7__43608" gradientUnits="userSpaceOnUse" x1="43" y1="7.5" x2="43" y2="56.266" spreadMethod="reflect">
	<stop offset="0" style="stop-color:#1A6DFF"/>
	<stop offset="1" style="stop-color:#C822FF"/>
</linearGradient>
<rect x="38" y="37" style="fill:url(#SVGID_7__43608);" width="10" height="2"/>
<linearGradient id="SVGID_8__43608" gradientUnits="userSpaceOnUse" x1="39" y1="7.5" x2="39" y2="56.266" spreadMethod="reflect">
	<stop offset="0" style="stop-color:#1A6DFF"/>
	<stop offset="1" style="stop-color:#C822FF"/>
</linearGradient>
<rect x="38" y="43" style="fill:url(#SVGID_8__43608);" width="2" height="3"/>
<linearGradient id="SVGID_9__43608" gradientUnits="userSpaceOnUse" x1="43" y1="7.5" x2="43" y2="56.266" spreadMethod="reflect">
	<stop offset="0" style="stop-color:#1A6DFF"/>
	<stop offset="1" style="stop-color:#C822FF"/>
</linearGradient>
<rect x="42" y="43" style="fill:url(#SVGID_9__43608);" width="2" height="3"/>
<linearGradient id="SVGID_10__43608" gradientUnits="userSpaceOnUse" x1="47" y1="7.5" x2="47" y2="56.266" spreadMethod="reflect">
	<stop offset="0" style="stop-color:#1A6DFF"/>
	<stop offset="1" style="stop-color:#C822FF"/>
</linearGradient>
<rect x="46" y="43" style="fill:url(#SVGID_10__43608);" width="2" height="3"/>
<linearGradient id="SVGID_11__43608" gradientUnits="userSpaceOnUse" x1="51" y1="7.5" x2="51" y2="56.266" spreadMethod="reflect">
	<stop offset="0" style="stop-color:#1A6DFF"/>
	<stop offset="1" style="stop-color:#C822FF"/>
</linearGradient>
<rect x="50" y="43" style="fill:url(#SVGID_11__43608);" width="2" height="3"/>
<linearGradient id="SVGID_12__43608" gradientUnits="userSpaceOnUse" x1="32" y1="11.8125" x2="32" y2="17.3157" spreadMethod="reflect">
	<stop offset="0" style="stop-color:#6DC7FF"/>
	<stop offset="1" style="stop-color:#E6ABFF"/>
</linearGradient>
<path style="fill:url(#SVGID_12__43608);" d="M34,17h-4v-4c0-0.552,0.448-1,1-1h2c0.552,0,1,0.448,1,1V17z"/>
</svg>
